<?xml version="1.0" encoding="iso-8859-1"?>
<!-- Generator: Adobe Illustrator 16.0.0, SVG Export Plug-In . SVG Version: 6.00 Build 0)  -->
<!DOCTYPE svg PUBLIC "-//W3C//DTD SVG 1.1//EN" "http://www.w3.org/Graphics/SVG/1.1/DTD/svg11.dtd">
<svg version="1.1" id="Layer_1" xmlns="http://www.w3.org/2000/svg" xmlns:xlink="http://www.w3.org/1999/xlink" x="0px" y="0px"
	 width="137.19px" height="47.934px" viewBox="0 0 137.19 47.934" style="enable-background:new 0 0 137.19 47.934;"
	 xml:space="preserve">
<g>
	<g>
		<circle style="fill-rule:evenodd;clip-rule:evenodd;fill:#A41F35;" cx="24.715" cy="14.503" r="4.591"/>
		<circle style="fill:#FFFFFF;" cx="25.445" cy="12.548" r="1.296"/>
	</g>
	<path style="fill-rule:evenodd;clip-rule:evenodd;fill:#B30838;" d="M22.044,5.274c0,0,44.259,1.402,44.554,8.591
		c0.197,8.59-44.849,9.994-44.849,9.994s56.652-1.403,56.652-9.644C78.401,5.976,22.044,5.274,22.044,5.274z"/>
	<path style="fill-rule:evenodd;clip-rule:evenodd;fill:#B30838;" d="M43.878,5.45c0,0,44.259,1.402,44.552,8.59
		c0.199,8.592-44.847,9.994-44.847,9.994s56.652-1.402,56.652-9.642C100.235,6.151,43.878,5.45,43.878,5.45z"/>
	<path style="fill-rule:evenodd;clip-rule:evenodd;fill:#B30838;" d="M64.139,5.45c0,0,44.258,1.402,44.555,8.59
		c0.195,8.592-44.85,9.994-44.85,9.994s56.651-1.402,56.651-9.642C120.495,6.151,64.139,5.45,64.139,5.45z"/>
	<g>
		<path d="M25.565,32.866c0.011-0.203,0.079-1.88,0.079-2.969h1.754c-0.156,2.496-0.303,4.991-0.303,7.501h-1.778
			c0.092-0.945,0.147-1.89,0.181-3.34h-3.733c-0.057,1.168-0.078,2.226-0.102,3.34h-1.754c0.156-2.34,0.326-4.498,0.326-7.501h1.755
			c-0.057,0.741-0.102,1.495-0.17,2.969H25.565z"/>
		<path d="M31.335,37.431c-0.339,0.068-0.675,0.102-1.035,0.102c-1.812,0-2.002-1.08-2.002-1.586c0-2.271,3.958-1.541,3.958-2.756
			c0-0.539-0.606-0.618-1.022-0.618c-0.754,0-1.496,0.203-2.193,0.474L29.208,32c0.799-0.19,1.608-0.327,2.43-0.327
			c0.989,0,2.183,0.237,2.183,1.463c0,0.799-0.192,2.576-0.192,4.263h-1.563c0.057-0.495,0.091-1,0.191-2.891
			c-0.584,0.518-2.462,0.462-2.462,1.461c0,0.529,0.494,0.664,0.944,0.664c0.303,0,0.597-0.067,0.877-0.169L31.335,37.431z"/>
		<path d="M36.8,32.718h0.022c0.473-0.773,1.237-1.046,2.148-1.046c1.191,0,2.092,0.461,2.092,1.778
			c0,0.687-0.157,2.261-0.157,3.947h-1.665c0.146-1.08,0.259-2.182,0.259-3.261c0-0.811-0.371-1.204-1.192-1.204
			c-0.888,0-1.371,0.652-1.529,1.461c-0.169,0.9-0.18,2.498-0.191,3.004h-1.608c0.158-1.698,0.271-3.408,0.304-5.589h1.574
			L36.8,32.718z"/>
		<path d="M42.221,37.398c0.202-2.496,0.281-4.993,0.304-7.501h1.585c-0.134,1.912-0.292,5.252-0.314,7.501H42.221z M45.573,34.283
			c0.697,1.067,1.474,2.082,2.215,3.115h-1.731c-0.619-1.09-1.405-2.07-2.068-3.127c0.651-0.82,1.338-1.608,1.944-2.462h1.767
			L45.573,34.283z"/>
		<path d="M59.361,33.113c-0.091,1.191-0.157,2.396-0.214,4.082c-0.956,0.191-1.924,0.338-2.924,0.338
			c-2.902,0-4.341-1.305-4.341-3.644c0-2.003,1.304-4.128,4.656-4.128c0.843,0,1.687,0.111,2.518,0.293l0.068,1.326
			c-0.753-0.246-1.552-0.426-2.351-0.426c-1.845,0-3.193,1.067-3.193,2.991c0,1.63,1.022,2.394,2.574,2.394
			c0.495,0,0.99-0.077,1.463-0.189l0.09-1.936h-1.372l0.056-1.102H59.361z"/>
		<path d="M61.902,34.688v0.179c0,1.047,0.709,1.631,1.722,1.631c0.641,0,1.259-0.168,1.866-0.359l-0.202,1.181
			c-0.596,0.135-1.203,0.214-1.822,0.214c-2.891,0-3.127-1.957-3.127-2.733c0-1.023,0.395-3.127,3.037-3.127
			c1.519,0,2.62,0.767,2.62,2.362c0,0.236-0.033,0.473-0.067,0.653H61.902z M64.5,33.934c0-0.866-0.304-1.327-1.159-1.327
			c-0.787,0-1.293,0.596-1.395,1.327H64.5z"/>
		<path d="M72.823,34.507c0,1.091-0.586,3.025-3.172,3.025c-2.271,0-3.003-1.574-3.003-2.789c0-1.912,1.305-3.071,3.183-3.071
			C71.597,31.672,72.823,32.687,72.823,34.507z M68.211,34.777c0,0.9,0.494,1.654,1.462,1.654c1.125,0,1.585-0.957,1.585-1.957
			c0-0.934-0.416-1.698-1.44-1.698C68.65,32.776,68.211,33.732,68.211,34.777z"/>
		<path d="M75.431,32.563h0.023c0.348-0.554,0.811-0.891,1.506-0.891c0.17,0,0.328,0.024,0.484,0.056l0.045,1.318
			c-0.201-0.068-0.393-0.113-0.607-0.113c-0.809,0-1.271,0.527-1.428,1.316c-0.125,0.605-0.135,1.799-0.135,2.451v0.697h-1.564
			c0.102-1.586,0.215-3.094,0.215-5.589h1.496L75.431,32.563z"/>
		<path d="M78.188,38.523c0.709,0.246,1.43,0.438,2.172,0.438c1.697,0,1.631-1.227,1.688-2.473h-0.023
			c-0.439,0.641-1.158,0.977-1.969,0.977c-1.506,0-2.418-0.967-2.418-2.451c0-0.99,0.439-3.341,3.744-3.341
			c0.812,0,1.621,0.124,2.42,0.272c-0.102,1.19-0.248,3.249-0.293,5.824c-0.035,1.777-1.125,2.295-2.744,2.295
			c-0.844,0-1.676-0.112-2.496-0.316L78.188,38.523z M81.315,32.776c-1.912,0-2.113,1.519-2.113,2.112
			c0,0.879,0.461,1.477,1.371,1.477c0.855,0,1.361-0.721,1.496-1.498c0.102-0.641,0.102-1.305,0.135-2.001
			C81.911,32.81,81.608,32.776,81.315,32.776z"/>
		<path d="M86.388,34.688v0.179c0,1.047,0.709,1.631,1.721,1.631c0.641,0,1.26-0.168,1.867-0.359l-0.203,1.181
			c-0.596,0.135-1.203,0.214-1.82,0.214c-2.893,0-3.127-1.957-3.127-2.733c0-1.023,0.393-3.127,3.037-3.127
			c1.516,0,2.619,0.767,2.619,2.362c0,0.236-0.035,0.473-0.066,0.653H86.388z M88.985,33.934c0-0.866-0.303-1.327-1.158-1.327
			c-0.787,0-1.293,0.596-1.395,1.327H88.985z"/>
		<path d="M91.888,38.736h-1.08l0.855-2.428h1.697L91.888,38.736z"/>
		<path d="M98.466,37.398c0.146-2.271,0.305-4.498,0.305-7.501h1.766c-0.158,2.137-0.248,4.24-0.293,7.501H98.466z"/>
		<path d="M103.583,31.82h-0.045c-0.045,1.507-0.146,3.609-0.168,5.578h-1.576c0.215-2.496,0.316-4.993,0.361-7.501h2.059
			c1.09,1.934,2.338,3.767,3.439,5.679h0.023c0.08-1.754,0.18-3.801,0.203-5.679h1.553c-0.203,2.44-0.328,5.005-0.371,7.501h-1.992
			L103.583,31.82z"/>
		<path d="M116.999,31.268c-0.572-0.168-1.168-0.313-1.775-0.313c-1.709,0-2.969,1.09-2.969,2.846c0,1.629,1.066,2.539,2.664,2.539
			c0.664,0,1.328-0.145,1.957-0.325l-0.201,1.315c-0.652,0.113-1.316,0.203-2.025,0.203c-2.203,0-4.094-1.203-4.094-3.644
			c0-2.688,1.867-4.128,4.443-4.128c0.641,0,1.293,0.09,1.934,0.213L116.999,31.268z"/>
		<path d="M118.204,37.398l0.057-1.495h1.574l-0.08,1.495H118.204z"/>
	</g>
</g>
</svg>
