<?xml version="1.0" encoding="iso-8859-1"?>
<!-- Generator: Adobe Illustrator 16.0.0, SVG Export Plug-In . SVG Version: 6.00 Build 0)  -->
<!DOCTYPE svg PUBLIC "-//W3C//DTD SVG 1.1//EN" "http://www.w3.org/Graphics/SVG/1.1/DTD/svg11.dtd">
<svg version="1.1" id="Layer_1" xmlns="http://www.w3.org/2000/svg" xmlns:xlink="http://www.w3.org/1999/xlink" x="0px" y="0px"
	 width="137.19px" height="47.934px" viewBox="0 0 137.19 47.934" style="enable-background:new 0 0 137.19 47.934;"
	 xml:space="preserve">
<g>
	<path style="fill:#D13239;" d="M92.122,26.411l2.822-7.129l2.884,7.129H92.122L92.122,26.411z M45.456,18.657
		c0,1.83-1.351,2.882-3.709,2.882h-4.685v-5.844l4.645,0.002c1.711,0,3.75,0.499,3.75,2.879V18.657L45.456,18.657z M98.985,8.478
		h-8.088l-9.539,22.446V20.088l-15.394-0.004v6.342h7.692c-1.296,2.338-3.79,3.922-6.654,3.922c-4.199,0-7.602-3.402-7.602-7.602
		c0-4.199,3.403-7.602,7.602-7.602c2.568,0,4.839,1.275,6.215,3.224l4.631-5.645c-2.698-2.928-6.56-4.765-10.851-4.765
		c-5.814,0-10.844,3.372-13.25,8.269c-0.341-1.823-1.132-3.351-2.374-4.562c-2.009-2.052-5.112-3.101-9.212-3.109H28.646v28.41
		h8.416v-9.128l8.723,9.128H56.04l-8.476-8.847c1.431-0.517,2.858-1.262,3.81-2.234c0.372-0.362,0.702-0.754,0.993-1.173
		c0.956,7.246,7.139,12.842,14.631,12.842c2.969,0,5.731-0.882,8.047-2.394v1.803h12.83l1.762-4.141h10.619l1.765,4.156h9.097
		L98.985,8.478L98.985,8.478z"/>
</g>
</svg>
