<?xml version="1.0" encoding="iso-8859-1"?>
<!-- Generator: Adobe Illustrator 16.0.0, SVG Export Plug-In . SVG Version: 6.00 Build 0)  -->
<!DOCTYPE svg PUBLIC "-//W3C//DTD SVG 1.1//EN" "http://www.w3.org/Graphics/SVG/1.1/DTD/svg11.dtd">
<svg version="1.1" id="Layer_1" xmlns="http://www.w3.org/2000/svg" xmlns:xlink="http://www.w3.org/1999/xlink" x="0px" y="0px"
	 width="400px" height="340px" viewBox="0 0 400 340" style="enable-background:new 0 0 400 340;" xml:space="preserve">
<rect x="-0.4" style="opacity:0.1;fill:#FBB040;enable-background:new    ;" width="400" height="340"/>
<g>
	<rect x="97.139" y="218.262" style="fill:#001689;" width="204.922" height="16.734"/>
	<path d="M200.093,209.707h-26.466v12.141l15.706,0.094l0.023,8.908h-15.729v12.455h26.466l0.068,9.394H163.03v-52.144l37.063-0.106
		V209.707L200.093,209.707z"/>
	<path d="M115.559,206.062c4.176-4.271,9.49-6.406,15.944-6.406c5.997,0,9.968,0.072,15.712,4.625c0,0,2.546,2.102,4.113,5.396
		c1.396,2.939,1.086,4.923,1.086,4.923l-9.746,0.062c-2.675-3.74-6.071-5.854-10.755-5.854c-3.862,0-6.909,1.594-9.139,4.779
		c-2.229,3.188-3.343,7.695-3.343,13.525c0,5.834,1.172,10.199,3.517,13.104c2.345,2.905,5.323,4.355,8.935,4.355
		c4.03,0,5.71-0.758,6.973-1.502c1.442-0.846,3.307-2.514,3.813-4.939l10.167,0.016c-1.093,5.01-3.513,8.752-6.18,10.861
		c-3.815,3.549-8.608,4.957-14.569,4.957c-7.38,0-13.178-2.395-17.4-7.18c-4.223-4.811-6.333-11.404-6.333-19.781
		C108.353,217.947,110.754,210.967,115.559,206.062z"/>
	<g style="enable-background:new    ;">
		<path d="M215.41,201.796c0.865-0.885,1.967-1.327,3.304-1.327c1.788,0,3.097,0.593,3.924,1.779
			c0.456,0.666,0.702,1.334,0.735,2.005h-2.246c-0.143-0.516-0.326-0.904-0.549-1.167c-0.4-0.466-0.993-0.699-1.779-0.699
			c-0.8,0-1.431,0.329-1.893,0.987c-0.462,0.659-0.693,1.591-0.693,2.797c0,1.205,0.244,2.107,0.731,2.708s1.106,0.9,1.858,0.9
			c0.77,0,1.357-0.258,1.762-0.772c0.223-0.277,0.408-0.692,0.556-1.247h2.231c-0.192,1.172-0.684,2.124-1.475,2.858
			c-0.791,0.733-1.805,1.101-3.041,1.101c-1.529,0-2.731-0.496-3.606-1.487c-0.875-0.996-1.312-2.362-1.312-4.098
			C213.917,204.258,214.414,202.812,215.41,201.796z"/>
		<path d="M231.627,210.447c-0.672,0.828-1.689,1.242-3.055,1.242c-1.367,0-2.385-0.414-3.056-1.242
			c-0.671-0.827-1.006-1.824-1.006-2.99c0-1.146,0.335-2.139,1.006-2.979c0.671-0.84,1.688-1.26,3.056-1.26
			c1.365,0,2.383,0.42,3.055,1.26c0.67,0.841,1.006,1.834,1.006,2.979C232.633,208.623,232.297,209.62,231.627,210.447z
			 M229.965,209.299c0.324-0.432,0.488-1.046,0.488-1.842s-0.164-1.408-0.488-1.838c-0.326-0.43-0.793-0.645-1.4-0.645
			s-1.076,0.215-1.404,0.645s-0.492,1.042-0.492,1.838s0.164,1.41,0.492,1.842c0.328,0.433,0.797,0.648,1.404,0.648
			S229.639,209.731,229.965,209.299z"/>
		<path d="M240.528,203.929c0.521,0.43,0.78,1.144,0.78,2.14v5.352h-2.129v-4.834c0-0.418-0.055-0.738-0.166-0.962
			c-0.203-0.409-0.589-0.613-1.158-0.613c-0.699,0-1.18,0.3-1.44,0.897c-0.135,0.315-0.202,0.719-0.202,1.21v4.302h-2.078v-7.933
			h2.012v1.159c0.267-0.408,0.519-0.702,0.756-0.882c0.426-0.321,0.965-0.481,1.619-0.481
			C239.339,203.283,240.008,203.498,240.528,203.929z"/>
		<path d="M242.425,205.025v-1.479h1.108v-2.217h2.056v2.217h1.29v1.479h-1.29v4.2c0,0.325,0.041,0.528,0.124,0.608
			c0.082,0.08,0.336,0.12,0.758,0.12c0.063,0,0.131-0.001,0.201-0.003c0.07-0.003,0.139-0.007,0.207-0.012v1.554l-0.984,0.036
			c-0.981,0.034-1.652-0.136-2.012-0.511c-0.233-0.237-0.35-0.604-0.35-1.101v-4.893H242.425z"/>
		<path d="M250.35,202.525h-2.107v-1.918h2.107V202.525z M248.242,203.473h2.107v7.947h-2.107V203.473z"/>
		<path d="M258.771,203.929c0.521,0.43,0.78,1.144,0.78,2.14v5.352h-2.129v-4.834c0-0.418-0.055-0.738-0.166-0.962
			c-0.203-0.409-0.589-0.613-1.158-0.613c-0.699,0-1.18,0.3-1.44,0.897c-0.135,0.315-0.202,0.719-0.202,1.21v4.302h-2.078v-7.933
			h2.012v1.159c0.267-0.408,0.519-0.702,0.756-0.882c0.426-0.321,0.965-0.481,1.619-0.481
			C257.581,203.283,258.25,203.498,258.771,203.929z"/>
		<path d="M263.554,203.473v4.79c0,0.452,0.054,0.793,0.159,1.021c0.189,0.404,0.559,0.605,1.11,0.605
			c0.706,0,1.189-0.286,1.45-0.86c0.136-0.311,0.203-0.722,0.203-1.232v-4.323h2.107v7.947h-2.02v-1.123
			c-0.02,0.024-0.068,0.098-0.145,0.219c-0.078,0.122-0.17,0.229-0.277,0.321c-0.324,0.291-0.639,0.491-0.941,0.598
			s-0.658,0.16-1.064,0.16c-1.174,0-1.963-0.423-2.371-1.269c-0.227-0.467-0.342-1.154-0.342-2.063v-4.79H263.554z"/>
		<path d="M272.74,202.525h-2.107v-1.918h2.107V202.525z M270.633,203.473h2.107v7.947h-2.107V203.473z"/>
		<path d="M281.16,203.929c0.521,0.43,0.781,1.144,0.781,2.14v5.352h-2.129v-4.834c0-0.418-0.056-0.738-0.166-0.962
			c-0.203-0.409-0.59-0.613-1.158-0.613c-0.7,0-1.18,0.3-1.441,0.897c-0.135,0.315-0.202,0.719-0.202,1.21v4.302h-2.077v-7.933
			h2.012v1.159c0.266-0.408,0.518-0.702,0.755-0.882c0.427-0.321,0.966-0.481,1.619-0.481
			C279.971,203.283,280.641,203.498,281.16,203.929z"/>
		<path d="M287.805,203.466c0.505,0.209,0.912,0.593,1.224,1.151v-1.145h2.026v7.539c0,1.025-0.172,1.798-0.518,2.318
			c-0.593,0.895-1.73,1.342-3.412,1.342c-1.016,0-1.844-0.199-2.486-0.598c-0.641-0.399-0.996-0.994-1.064-1.787h2.261
			c0.058,0.243,0.153,0.418,0.284,0.525c0.224,0.189,0.6,0.284,1.13,0.284c0.749,0,1.249-0.25,1.502-0.751
			c0.165-0.32,0.248-0.86,0.248-1.618v-0.511c-0.199,0.341-0.413,0.596-0.642,0.766c-0.413,0.316-0.95,0.474-1.611,0.474
			c-1.021,0-1.836-0.358-2.446-1.075s-0.915-1.688-0.915-2.913c0-1.181,0.294-2.174,0.881-2.978c0.588-0.805,1.42-1.207,2.498-1.207
			C287.162,203.283,287.509,203.344,287.805,203.466z M288.513,209.163c0.334-0.366,0.501-0.951,0.501-1.753
			c0-0.754-0.158-1.327-0.476-1.721s-0.741-0.591-1.274-0.591c-0.727,0-1.227,0.343-1.503,1.028
			c-0.146,0.364-0.218,0.813-0.218,1.349c0,0.462,0.078,0.872,0.232,1.232c0.281,0.671,0.784,1.006,1.51,1.006
			C287.77,209.714,288.179,209.53,288.513,209.163z"/>
	</g>
	<g style="enable-background:new    ;">
		<path style="fill:#FFFFFF;" d="M222.33,223.288h-5.687v2.282h5.221v1.866h-5.221v2.764h5.95v1.932h-8.145v-10.747h7.881V223.288z"
			/>
		<path style="fill:#FFFFFF;" d="M228.39,224.312c0.374,0.211,0.678,0.504,0.911,0.878v-3.791h2.107v10.732h-2.02v-1.101
			c-0.297,0.471-0.635,0.813-1.014,1.027s-0.851,0.321-1.414,0.321c-0.93,0-1.711-0.376-2.345-1.127s-0.951-1.714-0.951-2.891
			c0-1.356,0.312-2.423,0.937-3.2c0.625-0.778,1.459-1.167,2.505-1.167C227.588,223.995,228.016,224.101,228.39,224.312z
			 M228.9,229.974c0.306-0.438,0.459-1.004,0.459-1.698c0-0.973-0.246-1.668-0.736-2.086c-0.302-0.252-0.652-0.379-1.051-0.379
			c-0.607,0-1.053,0.229-1.338,0.689c-0.283,0.459-0.426,1.029-0.426,1.709c0,0.734,0.145,1.321,0.434,1.761
			c0.289,0.44,0.729,0.66,1.316,0.66S228.594,230.411,228.9,229.974z"/>
		<path style="fill:#FFFFFF;" d="M235.367,224.185v4.79c0,0.452,0.053,0.793,0.159,1.021c0.188,0.404,0.559,0.605,1.11,0.605
			c0.706,0,1.189-0.286,1.451-0.86c0.135-0.311,0.203-0.722,0.203-1.232v-4.323h2.107v7.947h-2.021v-1.123
			c-0.019,0.024-0.067,0.098-0.146,0.219c-0.077,0.122-0.17,0.229-0.275,0.321c-0.325,0.291-0.639,0.491-0.941,0.598
			c-0.304,0.106-0.658,0.16-1.066,0.16c-1.172,0-1.963-0.423-2.369-1.269c-0.229-0.467-0.342-1.154-0.342-2.063v-4.79H235.367z"/>
		<path style="fill:#FFFFFF;" d="M247.172,227.035c-0.039-0.296-0.14-0.563-0.301-0.802c-0.233-0.32-0.597-0.481-1.088-0.481
			c-0.702,0-1.182,0.348-1.44,1.043c-0.137,0.368-0.204,0.858-0.204,1.469c0,0.582,0.067,1.05,0.204,1.404
			c0.249,0.66,0.716,0.991,1.403,0.991c0.487,0,0.833-0.132,1.037-0.394c0.205-0.263,0.33-0.603,0.373-1.021h2.122
			c-0.049,0.633-0.277,1.23-0.687,1.794c-0.652,0.909-1.617,1.363-2.896,1.363c-1.28,0-2.222-0.379-2.824-1.137
			c-0.604-0.759-0.906-1.742-0.906-2.95c0-1.363,0.334-2.424,1-3.182c0.667-0.759,1.586-1.138,2.76-1.138
			c0.996,0,1.812,0.224,2.447,0.671c0.636,0.447,1.012,1.237,1.129,2.369H247.172z"/>
		<path style="fill:#FFFFFF;" d="M253.869,227.298c0.387-0.049,0.664-0.109,0.83-0.183c0.299-0.126,0.448-0.323,0.448-0.59
			c0-0.326-0.114-0.551-0.344-0.675s-0.565-0.186-1.009-0.186c-0.498,0-0.85,0.121-1.057,0.364c-0.148,0.18-0.246,0.423-0.296,0.729
			h-2.005c0.043-0.695,0.238-1.267,0.586-1.714c0.551-0.7,1.498-1.05,2.841-1.05c0.874,0,1.649,0.173,2.329,0.518
			c0.678,0.346,1.018,0.996,1.018,1.954v3.646c0,0.253,0.004,0.559,0.014,0.919c0.016,0.271,0.057,0.457,0.125,0.554
			c0.067,0.098,0.17,0.178,0.306,0.24v0.307h-2.261c-0.062-0.16-0.106-0.311-0.131-0.452c-0.023-0.141-0.043-0.301-0.059-0.481
			c-0.288,0.312-0.621,0.576-0.997,0.795c-0.45,0.258-0.958,0.387-1.525,0.387c-0.724,0-1.321-0.205-1.793-0.616
			s-0.708-0.993-0.708-1.746c0-0.978,0.38-1.685,1.139-2.122c0.416-0.238,1.029-0.408,1.836-0.51L253.869,227.298z M255.14,228.268
			c-0.133,0.083-0.267,0.149-0.403,0.2c-0.135,0.052-0.32,0.099-0.557,0.143l-0.474,0.088c-0.443,0.077-0.762,0.172-0.955,0.284
			c-0.327,0.189-0.491,0.483-0.491,0.882c0,0.354,0.1,0.611,0.301,0.77c0.199,0.158,0.442,0.236,0.729,0.236
			c0.454,0,0.873-0.131,1.255-0.394s0.581-0.741,0.596-1.437V228.268z"/>
		<path style="fill:#FFFFFF;" d="M258.209,225.737v-1.479h1.108v-2.217h2.056v2.217h1.291v1.479h-1.291v4.2
			c0,0.325,0.041,0.528,0.125,0.608c0.082,0.08,0.335,0.12,0.758,0.12c0.062,0,0.13-0.001,0.2-0.003
			c0.071-0.003,0.14-0.007,0.208-0.012v1.554l-0.984,0.036c-0.982,0.034-1.652-0.136-2.012-0.511
			c-0.234-0.237-0.351-0.604-0.351-1.101v-4.893H258.209z"/>
		<path style="fill:#FFFFFF;" d="M266.135,223.237h-2.107v-1.918h2.107V223.237z M264.027,224.185h2.107v7.947h-2.107V224.185z"/>
		<path style="fill:#FFFFFF;" d="M274.774,231.159c-0.671,0.828-1.688,1.242-3.055,1.242s-2.384-0.414-3.056-1.242
			c-0.67-0.827-1.006-1.824-1.006-2.99c0-1.146,0.336-2.139,1.006-2.979c0.672-0.84,1.689-1.26,3.056-1.26s2.384,0.42,3.055,1.26
			c0.671,0.841,1.007,1.834,1.007,2.979C275.781,229.335,275.445,230.332,274.774,231.159z M273.112,230.011
			c0.325-0.432,0.488-1.046,0.488-1.842s-0.163-1.408-0.488-1.838s-0.792-0.645-1.399-0.645c-0.608,0-1.076,0.215-1.404,0.645
			s-0.492,1.042-0.492,1.838s0.164,1.41,0.492,1.842c0.328,0.433,0.796,0.648,1.404,0.648
			C272.32,230.659,272.787,230.443,273.112,230.011z"/>
		<path style="fill:#FFFFFF;" d="M283.676,224.641c0.521,0.43,0.781,1.144,0.781,2.14v5.352h-2.129v-4.834
			c0-0.418-0.056-0.738-0.166-0.962c-0.203-0.409-0.59-0.613-1.158-0.613c-0.7,0-1.18,0.3-1.441,0.897
			c-0.135,0.315-0.202,0.719-0.202,1.21v4.302h-2.077v-7.933h2.012v1.159c0.266-0.408,0.518-0.702,0.755-0.882
			c0.427-0.321,0.966-0.481,1.619-0.481C282.486,223.995,283.156,224.21,283.676,224.641z"/>
	</g>
	<g style="enable-background:new    ;">
		<path d="M221.598,248.192c-0.629,0.524-1.527,0.787-2.694,0.787h-2.237v3.864h-2.231v-10.747h4.614
			c1.064,0,1.912,0.277,2.545,0.831c0.633,0.555,0.948,1.412,0.948,2.574C222.542,246.771,222.228,247.667,221.598,248.192z
			 M219.885,244.32c-0.285-0.238-0.684-0.357-1.195-0.357h-2.023v3.165h2.023c0.512,0,0.91-0.129,1.195-0.387
			c0.284-0.258,0.426-0.666,0.426-1.225C220.311,244.957,220.169,244.559,219.885,244.32z"/>
		<path d="M228.59,244.711c0.027,0.002,0.086,0.006,0.179,0.011v2.129c-0.132-0.015-0.248-0.024-0.351-0.029
			c-0.102-0.005-0.184-0.007-0.247-0.007c-0.837,0-1.397,0.271-1.685,0.816c-0.16,0.306-0.24,0.777-0.24,1.414v3.799h-2.093v-7.947
			h1.983v1.386c0.32-0.53,0.6-0.893,0.838-1.087c0.389-0.325,0.895-0.488,1.518-0.488
			C228.53,244.707,228.562,244.708,228.59,244.711z"/>
		<path d="M236.613,251.871c-0.67,0.828-1.688,1.242-3.055,1.242c-1.365,0-2.384-0.414-3.055-1.242
			c-0.671-0.827-1.006-1.824-1.006-2.99c0-1.146,0.335-2.139,1.006-2.979c0.671-0.84,1.689-1.26,3.055-1.26
			c1.366,0,2.385,0.42,3.055,1.26c0.672,0.841,1.007,1.834,1.007,2.979C237.62,250.047,237.285,251.044,236.613,251.871z
			 M234.951,250.723c0.326-0.432,0.488-1.046,0.488-1.842s-0.162-1.408-0.488-1.838c-0.325-0.43-0.792-0.645-1.399-0.645
			c-0.608,0-1.075,0.215-1.403,0.645s-0.492,1.042-0.492,1.838s0.164,1.41,0.492,1.842c0.328,0.433,0.795,0.648,1.403,0.648
			C234.159,251.371,234.626,251.155,234.951,250.723z"/>
		<path d="M243.039,244.89c0.504,0.209,0.912,0.593,1.223,1.151v-1.145h2.027v7.539c0,1.025-0.174,1.798-0.518,2.318
			c-0.594,0.895-1.73,1.342-3.412,1.342c-1.017,0-1.846-0.199-2.486-0.598c-0.643-0.399-0.997-0.994-1.064-1.787h2.26
			c0.059,0.243,0.152,0.418,0.284,0.525c0.224,0.189,0.601,0.284,1.13,0.284c0.748,0,1.25-0.25,1.502-0.751
			c0.166-0.32,0.248-0.86,0.248-1.618v-0.511c-0.199,0.341-0.413,0.596-0.642,0.766c-0.413,0.316-0.95,0.474-1.611,0.474
			c-1.021,0-1.836-0.358-2.446-1.075c-0.609-0.717-0.914-1.688-0.914-2.913c0-1.181,0.293-2.174,0.881-2.978
			c0.587-0.805,1.42-1.207,2.497-1.207C242.395,244.707,242.742,244.768,243.039,244.89z M243.746,250.587
			c0.334-0.366,0.501-0.951,0.501-1.753c0-0.754-0.159-1.327-0.476-1.721s-0.742-0.591-1.273-0.591
			c-0.727,0-1.228,0.343-1.504,1.028c-0.145,0.364-0.218,0.813-0.218,1.349c0,0.462,0.077,0.872,0.232,1.232
			c0.28,0.671,0.784,1.006,1.511,1.006C243.003,251.138,243.412,250.954,243.746,250.587z"/>
		<path d="M252.643,244.711c0.027,0.002,0.086,0.006,0.179,0.011v2.129c-0.132-0.015-0.248-0.024-0.351-0.029
			c-0.102-0.005-0.184-0.007-0.247-0.007c-0.837,0-1.397,0.271-1.685,0.816c-0.16,0.306-0.24,0.777-0.24,1.414v3.799h-2.093v-7.947
			h1.983v1.386c0.32-0.53,0.6-0.893,0.838-1.087c0.389-0.325,0.895-0.488,1.518-0.488
			C252.583,244.707,252.615,244.708,252.643,244.711z"/>
		<path d="M257.187,248.01c0.387-0.049,0.663-0.109,0.83-0.183c0.299-0.126,0.448-0.323,0.448-0.59c0-0.326-0.115-0.551-0.344-0.675
			s-0.565-0.186-1.009-0.186c-0.497,0-0.851,0.121-1.058,0.364c-0.147,0.18-0.246,0.423-0.295,0.729h-2.005
			c0.044-0.695,0.239-1.267,0.585-1.714c0.553-0.7,1.499-1.05,2.842-1.05c0.874,0,1.65,0.173,2.328,0.518
			c0.68,0.346,1.018,0.996,1.018,1.954v3.646c0,0.253,0.006,0.559,0.016,0.919c0.014,0.271,0.056,0.457,0.123,0.554
			c0.068,0.098,0.17,0.178,0.307,0.24v0.307h-2.26c-0.063-0.16-0.107-0.311-0.131-0.452c-0.025-0.141-0.045-0.301-0.059-0.481
			c-0.289,0.312-0.621,0.576-0.998,0.795c-0.449,0.258-0.958,0.387-1.525,0.387c-0.724,0-1.321-0.205-1.793-0.616
			s-0.707-0.993-0.707-1.746c0-0.978,0.379-1.685,1.138-2.122c0.417-0.238,1.028-0.408,1.837-0.51L257.187,248.01z M258.457,248.979
			c-0.133,0.083-0.268,0.149-0.402,0.2c-0.136,0.052-0.322,0.099-0.559,0.143l-0.473,0.088c-0.443,0.077-0.762,0.172-0.955,0.284
			c-0.327,0.189-0.49,0.483-0.49,0.882c0,0.354,0.1,0.611,0.299,0.77c0.2,0.158,0.443,0.236,0.729,0.236
			c0.454,0,0.872-0.131,1.255-0.394s0.581-0.741,0.596-1.437V248.979z"/>
		<path d="M272.259,244.926c0.341,0.136,0.649,0.374,0.927,0.715c0.223,0.276,0.373,0.617,0.451,1.021
			c0.049,0.268,0.073,0.658,0.073,1.174l-0.015,5.009h-2.129v-5.06c0-0.302-0.049-0.55-0.146-0.744
			c-0.184-0.369-0.524-0.554-1.02-0.554c-0.574,0-0.971,0.238-1.189,0.714c-0.111,0.253-0.168,0.557-0.168,0.912v4.731h-2.092
			v-4.731c0-0.472-0.049-0.814-0.146-1.028c-0.174-0.384-0.518-0.576-1.027-0.576c-0.594,0-0.992,0.192-1.195,0.576
			c-0.112,0.219-0.168,0.544-0.168,0.977v4.783h-2.107v-7.933h2.02v1.159c0.258-0.413,0.501-0.707,0.729-0.882
			c0.403-0.312,0.926-0.467,1.567-0.467c0.607,0,1.099,0.134,1.473,0.401c0.301,0.247,0.529,0.565,0.686,0.955
			c0.271-0.467,0.609-0.81,1.014-1.028c0.428-0.219,0.904-0.328,1.429-0.328C271.574,244.722,271.918,244.79,272.259,244.926z"/>
	</g>
</g>
<rect x="11.252" y="48.111" style="fill:none;" width="376.695" height="51.453"/>
<g style="enable-background:new    ;">
	<path style="fill:#001689;" d="M23.039,46.417h5.068c1.541,0,2.759,0.406,3.655,1.218c0.896,0.812,1.343,1.909,1.343,3.292
		c0,0.789-0.206,1.608-0.616,2.46c-0.411,0.851-1.168,1.519-2.271,2.003l4.306,6.414h-3.811l-3.982-5.953h-0.375v5.953h-3.316
		V46.417z M26.379,49.159v4.008h0.717c1.733,0,2.599-0.707,2.599-2.121c0-0.578-0.226-1.037-0.676-1.377s-1.076-0.51-1.875-0.51
		H26.379z"/>
	<path style="fill:#001689;" d="M45.598,57.479h-7.184c0.039,0.648,0.252,1.176,0.639,1.582s0.838,0.609,1.354,0.609
		c0.922,0,1.645-0.418,2.168-1.254l2.754,0.914c-1.023,1.789-2.613,2.684-4.77,2.684c-1.586,0-2.848-0.48-3.785-1.441
		s-1.406-2.254-1.406-3.879c0-1.461,0.494-2.688,1.482-3.68s2.205-1.488,3.65-1.488c1.453,0,2.666,0.521,3.639,1.564
		s1.459,2.346,1.459,3.908V57.479z M38.438,55.464h4.055c-0.281-1.258-0.926-1.887-1.934-1.887c-0.578,0-1.057,0.164-1.436,0.492
		S38.516,54.862,38.438,55.464z"/>
	<path style="fill:#001689;" d="M54.398,61.804v-1.723h-0.047c-0.469,0.672-0.941,1.158-1.418,1.459s-1.066,0.451-1.77,0.451
		c-1.18,0-2.184-0.508-3.012-1.523s-1.242-2.25-1.242-3.703c0-1.438,0.441-2.67,1.324-3.697s1.93-1.541,3.141-1.541
		c0.578,0,1.098,0.129,1.559,0.387s0.949,0.668,1.465,1.23v-1.395h3v10.055H54.398z M52.195,54.526c-0.594,0-1.09,0.236-1.488,0.709
		s-0.598,1.068-0.598,1.787c0,0.672,0.189,1.213,0.568,1.623s0.877,0.615,1.494,0.615c0.594,0,1.102-0.236,1.523-0.709
		s0.633-1.045,0.633-1.717c0-0.625-0.211-1.166-0.633-1.623S52.773,54.526,52.195,54.526z"/>
	<path style="fill:#001689;" d="M63.445,51.749v1.465h0.047c0.438-0.586,0.893-1.014,1.365-1.283s1.041-0.404,1.705-0.404
		c1.203,0,2.229,0.527,3.076,1.582s1.271,2.336,1.271,3.844c0,1.383-0.412,2.568-1.236,3.557s-1.803,1.482-2.936,1.482
		c-0.695,0-1.277-0.145-1.746-0.434s-0.953-0.75-1.453-1.383h-0.047v6.07h-3.047V51.749H63.445z M67.77,56.929
		c0-0.656-0.211-1.221-0.633-1.693s-0.926-0.709-1.512-0.709c-0.578,0-1.07,0.232-1.477,0.697s-0.609,1.033-0.609,1.705
		c0,0.648,0.213,1.203,0.639,1.664s0.943,0.691,1.553,0.691c0.594,0,1.082-0.219,1.465-0.656S67.77,57.624,67.77,56.929z"/>
	<path style="fill:#001689;" d="M79.5,48.269h3v3.457h1.441v2.754H82.5v7.324h-3v-7.324h-1.148v-2.754H79.5V48.269z"/>
	<path style="fill:#001689;" d="M85.969,46.159h3.047v6.738c0.547-0.469,1.055-0.809,1.523-1.02s1.012-0.316,1.629-0.316
		c1.055,0,1.881,0.381,2.479,1.143s0.896,1.818,0.896,3.17v5.93H92.52v-5.402c0-0.648-0.166-1.193-0.498-1.635
		s-0.74-0.662-1.225-0.662c-0.617,0-1.068,0.254-1.354,0.762s-0.428,1.301-0.428,2.379v4.559h-3.047V46.159z"/>
	<path style="fill:#001689;" d="M107.859,57.479h-7.184c0.039,0.648,0.252,1.176,0.639,1.582s0.838,0.609,1.354,0.609
		c0.922,0,1.645-0.418,2.168-1.254l2.754,0.914c-1.023,1.789-2.613,2.684-4.77,2.684c-1.586,0-2.848-0.48-3.785-1.441
		s-1.406-2.254-1.406-3.879c0-1.461,0.494-2.688,1.482-3.68s2.205-1.488,3.65-1.488c1.453,0,2.666,0.521,3.639,1.564
		s1.459,2.346,1.459,3.908V57.479z M100.699,55.464h4.055c-0.281-1.258-0.926-1.887-1.934-1.887c-0.578,0-1.057,0.164-1.436,0.492
		S100.777,54.862,100.699,55.464z"/>
	<path style="fill:#001689;" d="M116.344,46.136h3v6.961c0.891-1.047,1.906-1.57,3.047-1.57c1.203,0,2.244,0.52,3.123,1.559
		s1.318,2.289,1.318,3.75c0,1.383-0.434,2.588-1.301,3.615s-1.875,1.541-3.023,1.541c-0.578,0-1.111-0.145-1.6-0.434
		s-1.018-0.75-1.588-1.383v1.629h-2.977V46.136z M121.5,54.526c-0.594,0-1.09,0.213-1.488,0.639s-0.598,0.998-0.598,1.717
		c0,0.688,0.209,1.256,0.627,1.705s0.943,0.674,1.576,0.674c0.578,0,1.059-0.221,1.441-0.662s0.574-0.998,0.574-1.67
		c0-0.656-0.209-1.221-0.627-1.693S122.086,54.526,121.5,54.526z"/>
	<path style="fill:#001689;" d="M138.48,57.479h-7.184c0.039,0.648,0.252,1.176,0.639,1.582s0.838,0.609,1.354,0.609
		c0.922,0,1.645-0.418,2.168-1.254l2.754,0.914c-1.023,1.789-2.613,2.684-4.77,2.684c-1.586,0-2.848-0.48-3.785-1.441
		s-1.406-2.254-1.406-3.879c0-1.461,0.494-2.688,1.482-3.68s2.205-1.488,3.65-1.488c1.453,0,2.666,0.521,3.639,1.564
		s1.459,2.346,1.459,3.908V57.479z M131.32,55.464h4.055c-0.281-1.258-0.926-1.887-1.934-1.887c-0.578,0-1.057,0.164-1.436,0.492
		S131.398,54.862,131.32,55.464z"/>
	<path style="fill:#001689;" d="M143.824,51.726v1.195c1.023-0.961,2.098-1.441,3.223-1.441c0.961,0,1.756,0.395,2.385,1.184
		s0.943,1.797,0.943,3.023v6.117h-3.047v-5.637c0-0.578-0.158-1.066-0.475-1.465s-0.701-0.598-1.154-0.598
		c-0.547,0-0.996,0.252-1.348,0.756s-0.527,1.154-0.527,1.951v4.992h-3V51.726H143.824z"/>
	<path style="fill:#001689;" d="M162.715,57.479h-7.184c0.039,0.648,0.252,1.176,0.639,1.582s0.838,0.609,1.354,0.609
		c0.922,0,1.645-0.418,2.168-1.254l2.754,0.914c-1.023,1.789-2.613,2.684-4.77,2.684c-1.586,0-2.848-0.48-3.785-1.441
		s-1.406-2.254-1.406-3.879c0-1.461,0.494-2.688,1.482-3.68s2.205-1.488,3.65-1.488c1.453,0,2.666,0.521,3.639,1.564
		s1.459,2.346,1.459,3.908V57.479z M155.555,55.464h4.055c-0.281-1.258-0.926-1.887-1.934-1.887c-0.578,0-1.057,0.164-1.436,0.492
		S155.633,54.862,155.555,55.464z"/>
	<path style="fill:#001689;" d="M170.414,46.534v2.883c-0.453-0.305-0.844-0.457-1.172-0.457c-0.422,0-0.764,0.152-1.025,0.457
		s-0.393,0.699-0.393,1.184v1.125h2.566v2.73h-2.59v7.348h-3v-7.348h-0.891v-2.73h0.891v-1.23c0-1.711,0.363-2.869,1.09-3.475
		s1.578-0.908,2.555-0.908C169.219,46.112,169.875,46.253,170.414,46.534z"/>
	<path style="fill:#001689;" d="M172.09,47.993c0-0.51,0.184-0.948,0.551-1.316s0.809-0.553,1.324-0.553s0.957,0.185,1.324,0.553
		s0.551,0.807,0.551,1.316c0,0.518-0.184,0.96-0.551,1.328c-0.367,0.369-0.809,0.553-1.324,0.553s-0.957-0.184-1.324-0.553
		C172.273,48.953,172.09,48.511,172.09,47.993z M172.477,51.726h3v10.078h-3V51.726z"/>
	<path style="fill:#001689;" d="M178.57,48.269h3v3.457h1.441v2.754h-1.441v7.324h-3v-7.324h-1.148v-2.754h1.148V48.269z"/>
	<path style="fill:#001689;" d="M192.223,53.144l-2.039,1.242c-0.589-0.594-1.138-0.891-1.648-0.891
		c-0.251,0-0.467,0.07-0.647,0.211c-0.181,0.14-0.271,0.312-0.271,0.514c0,0.328,0.104,0.566,0.313,0.714
		c0.208,0.148,0.763,0.377,1.664,0.687c0.901,0.311,1.611,0.707,2.13,1.191s0.779,1.156,0.779,2.016
		c0,0.867-0.391,1.611-1.172,2.232s-1.719,0.932-2.812,0.932c-0.742,0-1.482-0.207-2.221-0.621s-1.365-1.047-1.881-1.898
		l2.426-1.102c0.547,0.945,1.113,1.418,1.699,1.418c0.266,0,0.504-0.086,0.715-0.257c0.211-0.172,0.316-0.366,0.316-0.584
		c0-0.28-0.121-0.493-0.363-0.638c-0.242-0.146-0.422-0.218-0.539-0.218c-0.047-0.055-0.328-0.164-0.844-0.329
		c-2.016-0.657-3.023-1.725-3.023-3.201c0-0.891,0.361-1.619,1.084-2.186s1.666-0.85,2.83-0.85
		C190.008,51.526,191.176,52.065,192.223,53.144z"/>
	<path style="fill:#001689;" d="M201.164,56.788c0-1.555,0.496-2.824,1.488-3.809s2.266-1.477,3.82-1.477
		c1.445,0,2.658,0.502,3.639,1.506s1.471,2.248,1.471,3.732c0,1.516-0.49,2.773-1.471,3.773s-2.209,1.5-3.686,1.5
		c-1.664,0-2.957-0.529-3.879-1.588S201.164,58.155,201.164,56.788z M208.629,56.788c0-0.68-0.223-1.273-0.668-1.781
		s-0.965-0.762-1.559-0.762c-0.617,0-1.148,0.238-1.594,0.715s-0.668,1.047-0.668,1.711c0,0.727,0.221,1.344,0.662,1.852
		s0.975,0.762,1.6,0.762c0.594,0,1.113-0.248,1.559-0.744S208.629,57.46,208.629,56.788z"/>
	<path style="fill:#001689;" d="M219.762,46.534v2.883c-0.453-0.305-0.844-0.457-1.172-0.457c-0.422,0-0.764,0.152-1.025,0.457
		s-0.393,0.699-0.393,1.184v1.125h2.566v2.73h-2.59v7.348h-3v-7.348h-0.891v-2.73h0.891v-1.23c0-1.711,0.363-2.869,1.09-3.475
		s1.578-0.908,2.555-0.908C218.566,46.112,219.223,46.253,219.762,46.534z"/>
	<path style="fill:#001689;" d="M232.605,51.726v1.488h0.047c0.297-0.5,0.643-0.896,1.037-1.189s0.76-0.439,1.096-0.439
		c0.203,0,0.387,0.016,0.551,0.047v3.281c-0.25-0.047-0.496-0.07-0.738-0.07c-0.617,0-1.096,0.217-1.436,0.65
		s-0.51,1.041-0.51,1.822v4.488h-3.047V51.726H232.605z"/>
	<path style="fill:#001689;" d="M247.125,57.479h-7.184c0.039,0.648,0.252,1.176,0.639,1.582s0.838,0.609,1.354,0.609
		c0.922,0,1.645-0.418,2.168-1.254l2.754,0.914c-1.023,1.789-2.613,2.684-4.77,2.684c-1.586,0-2.848-0.48-3.785-1.441
		s-1.406-2.254-1.406-3.879c0-1.461,0.494-2.688,1.482-3.68s2.205-1.488,3.65-1.488c1.453,0,2.666,0.521,3.639,1.564
		s1.459,2.346,1.459,3.908V57.479z M239.965,55.464h4.055c-0.281-1.258-0.926-1.887-1.934-1.887c-0.578,0-1.057,0.164-1.436,0.492
		S240.043,54.862,239.965,55.464z"/>
	<path style="fill:#001689;" d="M255.926,46.159h3.023v15.645h-2.953v-1.723h-0.047c-0.874,1.258-1.958,1.887-3.253,1.887
		c-1.154,0-2.139-0.504-2.954-1.512s-1.223-2.238-1.223-3.691s0.421-2.693,1.264-3.721c0.842-1.027,1.853-1.541,3.03-1.541
		c0.671,0,1.236,0.123,1.696,0.369s0.933,0.646,1.416,1.201V46.159z M253.717,54.479c-0.49,0-0.95,0.227-1.379,0.68
		s-0.643,1.066-0.643,1.84c0,0.617,0.188,1.145,0.566,1.582s0.836,0.656,1.373,0.656c0.64,0,1.173-0.236,1.602-0.709
		s0.643-1.061,0.643-1.764c0-0.609-0.209-1.143-0.625-1.6C254.837,54.708,254.324,54.479,253.717,54.479z"/>
	<path style="fill:#001689;" d="M261.961,51.749h3.047v4.828c0,0.695,0.177,1.275,0.531,1.74s0.793,0.697,1.314,0.697
		c0.553,0,1.019-0.225,1.396-0.674c0.377-0.449,0.566-1.014,0.566-1.693v-4.898h3.047v5.859c0,1.242-0.474,2.283-1.422,3.123
		s-2.129,1.26-3.541,1.26c-1.498,0-2.696-0.422-3.594-1.266s-1.346-1.965-1.346-3.363V51.749z"/>
	<path style="fill:#001689;" d="M282.023,58.312v3c-1.031,0.469-1.887,0.703-2.566,0.703c-1.516,0-2.781-0.5-3.797-1.5
		s-1.523-2.25-1.523-3.75c0-1.508,0.471-2.758,1.412-3.75s2.135-1.488,3.58-1.488c1.008,0,1.984,0.234,2.93,0.703v2.836
		c-0.875-0.422-1.676-0.633-2.402-0.633c-0.672,0-1.213,0.205-1.623,0.615s-0.615,0.951-0.615,1.623
		c0,0.664,0.203,1.201,0.609,1.611s0.941,0.615,1.605,0.615C280.234,58.897,281.031,58.702,282.023,58.312z"/>
	<path style="fill:#001689;" d="M293.789,57.479h-7.184c0.039,0.648,0.252,1.176,0.639,1.582s0.838,0.609,1.354,0.609
		c0.922,0,1.645-0.418,2.168-1.254l2.754,0.914c-1.023,1.789-2.613,2.684-4.77,2.684c-1.586,0-2.848-0.48-3.785-1.441
		s-1.406-2.254-1.406-3.879c0-1.461,0.494-2.688,1.482-3.68s2.205-1.488,3.65-1.488c1.453,0,2.666,0.521,3.639,1.564
		s1.459,2.346,1.459,3.908V57.479z M286.629,55.464h4.055c-0.281-1.258-0.926-1.887-1.934-1.887c-0.578,0-1.057,0.164-1.436,0.492
		S286.707,54.862,286.629,55.464z"/>
	<path style="fill:#001689;" d="M302.59,46.159h3.023v15.645h-2.953v-1.723h-0.047c-0.874,1.258-1.958,1.887-3.253,1.887
		c-1.154,0-2.139-0.504-2.954-1.512s-1.223-2.238-1.223-3.691s0.421-2.693,1.264-3.721c0.842-1.027,1.853-1.541,3.03-1.541
		c0.671,0,1.236,0.123,1.696,0.369s0.933,0.646,1.416,1.201V46.159z M300.381,54.479c-0.49,0-0.95,0.227-1.379,0.68
		s-0.643,1.066-0.643,1.84c0,0.617,0.188,1.145,0.566,1.582s0.836,0.656,1.373,0.656c0.64,0,1.173-0.236,1.602-0.709
		s0.643-1.061,0.643-1.764c0-0.609-0.209-1.143-0.625-1.6C301.501,54.708,300.988,54.479,300.381,54.479z"/>
	<path style="fill:#001689;" d="M322.336,58.312v3c-1.031,0.469-1.887,0.703-2.566,0.703c-1.516,0-2.781-0.5-3.797-1.5
		s-1.523-2.25-1.523-3.75c0-1.508,0.471-2.758,1.412-3.75s2.135-1.488,3.58-1.488c1.008,0,1.984,0.234,2.93,0.703v2.836
		c-0.875-0.422-1.676-0.633-2.402-0.633c-0.672,0-1.213,0.205-1.623,0.615s-0.615,0.951-0.615,1.623
		c0,0.664,0.203,1.201,0.609,1.611s0.941,0.615,1.605,0.615C320.547,58.897,321.344,58.702,322.336,58.312z"/>
	<path style="fill:#001689;" d="M324.855,46.159h3v15.645h-3V46.159z"/>
	<path style="fill:#001689;" d="M337.641,61.804v-1.723h-0.047c-0.469,0.672-0.941,1.158-1.418,1.459s-1.066,0.451-1.77,0.451
		c-1.18,0-2.184-0.508-3.012-1.523s-1.242-2.25-1.242-3.703c0-1.438,0.441-2.67,1.324-3.697s1.93-1.541,3.141-1.541
		c0.578,0,1.098,0.129,1.559,0.387s0.949,0.668,1.465,1.23v-1.395h3v10.055H337.641z M335.438,54.526
		c-0.594,0-1.09,0.236-1.488,0.709s-0.598,1.068-0.598,1.787c0,0.672,0.189,1.213,0.568,1.623s0.877,0.615,1.494,0.615
		c0.594,0,1.102-0.236,1.523-0.709s0.633-1.045,0.633-1.717c0-0.625-0.211-1.166-0.633-1.623S336.016,54.526,335.438,54.526z"/>
	<path style="fill:#001689;" d="M343.371,47.993c0-0.51,0.184-0.948,0.551-1.316s0.809-0.553,1.324-0.553s0.957,0.185,1.324,0.553
		s0.551,0.807,0.551,1.316c0,0.518-0.184,0.96-0.551,1.328c-0.367,0.369-0.809,0.553-1.324,0.553s-0.957-0.184-1.324-0.553
		C343.555,48.953,343.371,48.511,343.371,47.993z M343.758,51.726h3v10.078h-3V51.726z"/>
	<path style="fill:#001689;" d="M353.016,51.726v1.605c0.141-0.094,0.348-0.273,0.621-0.539s0.537-0.49,0.791-0.674
		s0.559-0.332,0.914-0.445s0.678-0.17,0.967-0.17c0.461,0,0.961,0.162,1.5,0.486s0.988,0.9,1.348,1.729
		c0.625-0.797,1.236-1.365,1.834-1.705s1.154-0.51,1.67-0.51c0.914,0,1.688,0.377,2.32,1.131s0.949,1.682,0.949,2.783v6.387h-3
		v-5.59c0-0.555-0.152-1.021-0.457-1.4s-0.672-0.568-1.102-0.568c-0.516,0-0.961,0.215-1.336,0.645s-0.562,0.941-0.562,1.535v5.379
		h-2.977v-5.449c0-0.586-0.154-1.08-0.463-1.482s-0.682-0.604-1.119-0.604c-0.516,0-0.961,0.221-1.336,0.662
		s-0.562,0.971-0.562,1.588v5.285h-3.023V51.726H353.016z"/>
	<path style="fill:#001689;" d="M376.277,53.144l-2.039,1.242c-0.589-0.594-1.138-0.891-1.648-0.891
		c-0.251,0-0.467,0.07-0.647,0.211c-0.181,0.14-0.271,0.312-0.271,0.514c0,0.328,0.104,0.566,0.312,0.714
		c0.209,0.148,0.764,0.377,1.664,0.687c0.901,0.311,1.611,0.707,2.131,1.191s0.779,1.156,0.779,2.016
		c0,0.867-0.391,1.611-1.172,2.232s-1.719,0.932-2.812,0.932c-0.742,0-1.482-0.207-2.221-0.621s-1.365-1.047-1.881-1.898
		l2.426-1.102c0.547,0.945,1.113,1.418,1.699,1.418c0.266,0,0.504-0.086,0.715-0.257c0.211-0.172,0.316-0.366,0.316-0.584
		c0-0.28-0.121-0.493-0.363-0.638c-0.242-0.146-0.422-0.218-0.539-0.218c-0.047-0.055-0.328-0.164-0.844-0.329
		c-2.016-0.657-3.023-1.725-3.023-3.201c0-0.891,0.361-1.619,1.084-2.186s1.666-0.85,2.83-0.85
		C374.062,51.526,375.23,52.065,376.277,53.144z"/>
</g>
<rect x="-0.4" y="118.62" style="fill:#001689;" width="400" height="45.81"/>
<rect x="40.748" y="136.845" style="fill:none;" width="317.705" height="17.33"/>
<g style="enable-background:new    ;">
	<path style="fill:#FFFFFF;" d="M74.741,135.051h2.625v12.182h-2.625V135.051z"/>
	<path style="fill:#FFFFFF;" d="M82.2,139.254v1.271c0.111-0.074,0.275-0.217,0.492-0.428c0.216-0.21,0.425-0.388,0.626-0.533
		c0.201-0.145,0.442-0.263,0.724-0.353c0.282-0.089,0.537-0.134,0.766-0.134c0.365,0,0.761,0.128,1.188,0.385
		s0.782,0.713,1.067,1.368c0.495-0.631,0.979-1.081,1.452-1.35c0.474-0.27,0.914-0.403,1.322-0.403c0.724,0,1.336,0.298,1.837,0.895
		c0.501,0.598,0.751,1.332,0.751,2.203v5.057h-2.375v-4.426c0-0.438-0.121-0.808-0.362-1.108c-0.241-0.3-0.532-0.45-0.872-0.45
		c-0.408,0-0.761,0.171-1.058,0.511s-0.445,0.745-0.445,1.216v4.258h-2.356v-4.314c0-0.463-0.122-0.854-0.366-1.173
		c-0.245-0.318-0.54-0.478-0.886-0.478c-0.408,0-0.761,0.175-1.058,0.523c-0.297,0.35-0.445,0.769-0.445,1.258v4.184h-2.394v-7.979
		H82.2z"/>
	<path style="fill:#FFFFFF;" d="M97.173,139.272v1.159h0.037c0.346-0.463,0.707-0.802,1.081-1.016c0.375-0.213,0.824-0.32,1.35-0.32
		c0.952,0,1.764,0.418,2.435,1.253c0.671,0.835,1.007,1.85,1.007,3.043c0,1.095-0.326,2.033-0.979,2.815
		c-0.653,0.783-1.428,1.174-2.324,1.174c-0.551,0-1.011-0.114-1.382-0.344c-0.371-0.229-0.755-0.594-1.15-1.094H97.21v4.805h-2.412
		v-11.476H97.173z M100.597,143.373c0-0.52-0.167-0.966-0.501-1.341c-0.334-0.374-0.733-0.562-1.197-0.562
		c-0.458,0-0.848,0.185-1.169,0.553c-0.322,0.368-0.482,0.817-0.482,1.35c0,0.514,0.168,0.952,0.505,1.317
		c0.337,0.365,0.747,0.548,1.229,0.548c0.47,0,0.856-0.174,1.16-0.52C100.445,144.372,100.597,143.924,100.597,143.373z"/>
	<path style="fill:#FFFFFF;" d="M107.091,139.254v1.178h0.037c0.235-0.396,0.509-0.709,0.821-0.941
		c0.312-0.231,0.602-0.348,0.868-0.348c0.161,0,0.306,0.013,0.436,0.037v2.598c-0.198-0.037-0.393-0.056-0.584-0.056
		c-0.489,0-0.868,0.172-1.136,0.515c-0.27,0.344-0.404,0.824-0.404,1.443v3.553h-2.412v-7.979H107.091z"/>
	<path style="fill:#FFFFFF;" d="M110.561,143.262c0-1.23,0.393-2.236,1.178-3.016c0.785-0.779,1.793-1.168,3.024-1.168
		c1.144,0,2.104,0.397,2.88,1.191c0.776,0.795,1.165,1.78,1.165,2.955c0,1.2-0.388,2.195-1.165,2.987
		c-0.776,0.792-1.749,1.188-2.917,1.188c-1.317,0-2.341-0.419-3.071-1.257C110.925,145.305,110.561,144.344,110.561,143.262z
		 M116.47,143.262c0-0.538-0.176-1.008-0.529-1.41s-0.764-0.604-1.234-0.604c-0.489,0-0.909,0.189-1.262,0.566
		s-0.529,0.829-0.529,1.354c0,0.575,0.175,1.063,0.524,1.466c0.349,0.402,0.771,0.604,1.266,0.604c0.47,0,0.881-0.196,1.234-0.59
		C116.294,144.256,116.47,143.794,116.47,143.262z"/>
	<path style="fill:#FFFFFF;" d="M119.495,139.254h2.508l2.19,4.676l2.188-4.676h2.484l-3.714,7.979h-1.938L119.495,139.254z"/>
	<path style="fill:#FFFFFF;" d="M137.623,143.809h-5.687c0.031,0.514,0.2,0.932,0.505,1.253c0.307,0.321,0.664,0.482,1.072,0.482
		c0.729,0,1.302-0.331,1.716-0.993l2.18,0.725c-0.811,1.416-2.069,2.124-3.776,2.124c-1.256,0-2.254-0.38-2.997-1.142
		c-0.742-0.76-1.113-1.784-1.113-3.07c0-1.156,0.391-2.128,1.173-2.913c0.783-0.785,1.746-1.179,2.89-1.179
		c1.15,0,2.111,0.413,2.88,1.239c0.771,0.825,1.155,1.856,1.155,3.094V143.809z M131.954,142.213h3.21
		c-0.223-0.995-0.733-1.493-1.531-1.493c-0.458,0-0.836,0.13-1.137,0.39C132.197,141.369,132.016,141.737,131.954,142.213z"/>
	<path style="fill:#FFFFFF;" d="M144.339,139.272h2.412v3.822c0,0.551,0.14,1.01,0.421,1.378c0.28,0.368,0.627,0.552,1.041,0.552
		c0.438,0,0.806-0.178,1.105-0.533c0.299-0.355,0.449-0.803,0.449-1.341v-3.878h2.412v4.639c0,0.983-0.375,1.808-1.126,2.473
		s-1.685,0.997-2.803,0.997c-1.186,0-2.134-0.334-2.845-1.002s-1.065-1.556-1.065-2.662V139.272z"/>
	<path style="fill:#FFFFFF;" d="M156.994,139.254v0.946c0.81-0.761,1.661-1.142,2.551-1.142c0.761,0,1.39,0.312,1.888,0.938
		c0.498,0.625,0.747,1.423,0.747,2.394v4.843h-2.412v-4.463c0-0.457-0.125-0.844-0.376-1.159c-0.25-0.315-0.555-0.474-0.914-0.474
		c-0.433,0-0.789,0.2-1.067,0.599c-0.278,0.399-0.417,0.914-0.417,1.545v3.952h-2.375v-7.979H156.994z"/>
	<path style="fill:#FFFFFF;" d="M169.815,134.848h2.394v12.385h-2.338v-1.363h-0.037c-0.691,0.995-1.55,1.493-2.575,1.493
		c-0.914,0-1.693-0.399-2.339-1.196c-0.645-0.799-0.968-1.772-0.968-2.923s0.333-2.132,1-2.945c0.667-0.813,1.466-1.22,2.399-1.22
		c0.531,0,0.979,0.097,1.343,0.292c0.364,0.194,0.738,0.512,1.121,0.95V134.848z M168.066,141.434c-0.389,0-0.752,0.18-1.092,0.539
		c-0.339,0.358-0.509,0.844-0.509,1.456c0,0.488,0.149,0.906,0.449,1.253c0.299,0.346,0.661,0.52,1.087,0.52
		c0.506,0,0.928-0.188,1.268-0.562s0.509-0.84,0.509-1.396c0-0.482-0.165-0.904-0.495-1.267
		C168.953,141.615,168.547,141.434,168.066,141.434z"/>
	<path style="fill:#FFFFFF;" d="M182.033,143.809h-5.687c0.031,0.514,0.2,0.932,0.505,1.253c0.307,0.321,0.664,0.482,1.072,0.482
		c0.729,0,1.302-0.331,1.716-0.993l2.18,0.725c-0.811,1.416-2.069,2.124-3.776,2.124c-1.256,0-2.254-0.38-2.997-1.142
		c-0.742-0.76-1.113-1.784-1.113-3.07c0-1.156,0.391-2.128,1.173-2.913c0.783-0.785,1.746-1.179,2.89-1.179
		c1.15,0,2.111,0.413,2.88,1.239c0.771,0.825,1.155,1.856,1.155,3.094V143.809z M176.365,142.213h3.21
		c-0.223-0.995-0.733-1.493-1.531-1.493c-0.458,0-0.836,0.13-1.137,0.39C176.607,141.369,176.426,141.737,176.365,142.213z"/>
	<path style="fill:#FFFFFF;" d="M185.967,139.254v1.178h0.037c0.235-0.396,0.509-0.709,0.821-0.941
		c0.312-0.231,0.602-0.348,0.868-0.348c0.161,0,0.306,0.013,0.436,0.037v2.598c-0.198-0.037-0.393-0.056-0.584-0.056
		c-0.489,0-0.868,0.172-1.136,0.515c-0.27,0.344-0.404,0.824-0.404,1.443v3.553h-2.412v-7.979H185.967z"/>
	<path style="fill:#FFFFFF;" d="M188.741,139.254h2.508l2.145,4.731l1.892-4.731h1.548l1.885,4.694l2.131-4.694h2.503l-3.638,7.979
		h-1.905l-1.735-4.369l-1.756,4.369h-1.95L188.741,139.254z"/>
	<path style="fill:#FFFFFF;" d="M206.961,139.254v1.178h0.037c0.235-0.396,0.51-0.709,0.821-0.941
		c0.312-0.231,0.602-0.348,0.868-0.348c0.16,0,0.306,0.013,0.436,0.037v2.598c-0.198-0.037-0.393-0.056-0.584-0.056
		c-0.489,0-0.868,0.172-1.137,0.515c-0.27,0.344-0.404,0.824-0.404,1.443v3.553h-2.412v-7.979H206.961z"/>
	<path style="fill:#FFFFFF;" d="M210.449,136.299c0-0.403,0.146-0.75,0.437-1.042c0.29-0.292,0.64-0.438,1.048-0.438
		s0.758,0.146,1.049,0.438s0.436,0.639,0.436,1.042c0,0.41-0.145,0.761-0.436,1.052c-0.291,0.292-0.641,0.438-1.049,0.438
		s-0.758-0.146-1.048-0.438C210.595,137.06,210.449,136.709,210.449,136.299z M210.756,139.254h2.375v7.979h-2.375V139.254z"/>
	<path style="fill:#FFFFFF;" d="M215.58,136.518h2.375v2.736h1.141v2.18h-1.141v5.799h-2.375v-5.799h-0.909v-2.18h0.909V136.518z"/>
	<path style="fill:#FFFFFF;" d="M220.32,136.299c0-0.403,0.146-0.75,0.437-1.042c0.29-0.292,0.64-0.438,1.048-0.438
		s0.758,0.146,1.049,0.438s0.436,0.639,0.436,1.042c0,0.41-0.145,0.761-0.436,1.052c-0.291,0.292-0.641,0.438-1.049,0.438
		s-0.758-0.146-1.048-0.438C220.466,137.06,220.32,136.709,220.32,136.299z M220.627,139.254h2.375v7.979h-2.375V139.254z"/>
	<path style="fill:#FFFFFF;" d="M228.012,139.254v0.946c0.811-0.761,1.66-1.142,2.551-1.142c0.762,0,1.391,0.312,1.889,0.938
		s0.746,1.423,0.746,2.394v4.843h-2.412v-4.463c0-0.457-0.125-0.844-0.375-1.159s-0.556-0.474-0.914-0.474
		c-0.434,0-0.789,0.2-1.066,0.599c-0.279,0.399-0.418,0.914-0.418,1.545v3.952h-2.375v-7.979H228.012z"/>
	<path style="fill:#FFFFFF;" d="M240.852,146.777v-0.937c-0.711,0.903-1.534,1.354-2.468,1.354c-1.002,0-1.839-0.387-2.51-1.16
		c-0.671-0.772-1.007-1.74-1.007-2.903c0-1.126,0.349-2.083,1.044-2.871c0.696-0.789,1.532-1.183,2.51-1.183
		c0.829,0,1.639,0.433,2.431,1.299v-1.104h2.356v8.071c0,0.445-0.141,0.957-0.422,1.535c-0.282,0.578-0.761,1.005-1.438,1.28
		c-0.677,0.275-1.461,0.413-2.352,0.413c-1.107,0-1.993-0.207-2.658-0.621c-0.664-0.415-1.143-1.126-1.434-2.135h2.663
		c0.52,0.725,1.082,1.086,1.688,1.086c0.47,0,0.854-0.196,1.15-0.589C240.703,147.92,240.852,147.408,240.852,146.777z
		 M237.4,143.197c0,0.408,0.178,0.806,0.533,1.191c0.355,0.387,0.771,0.58,1.248,0.58c0.464,0,0.861-0.184,1.192-0.552
		s0.496-0.818,0.496-1.351c0-0.544-0.157-0.992-0.474-1.345c-0.314-0.353-0.721-0.528-1.215-0.528c-0.501,0-0.923,0.184-1.267,0.552
		C237.572,142.113,237.4,142.597,237.4,143.197z"/>
	<path style="fill:#FFFFFF;" d="M258.07,143.809h-5.688c0.031,0.514,0.2,0.932,0.506,1.253c0.307,0.321,0.664,0.482,1.072,0.482
		c0.729,0,1.301-0.331,1.716-0.993l2.181,0.725c-0.811,1.416-2.069,2.124-3.776,2.124c-1.256,0-2.255-0.38-2.997-1.142
		c-0.742-0.76-1.113-1.784-1.113-3.07c0-1.156,0.392-2.128,1.174-2.913c0.783-0.785,1.746-1.179,2.891-1.179
		c1.15,0,2.11,0.413,2.88,1.239c0.771,0.825,1.155,1.856,1.155,3.094V143.809z M252.402,142.213h3.209
		c-0.223-0.995-0.732-1.493-1.53-1.493c-0.458,0-0.837,0.13-1.137,0.39S252.463,141.737,252.402,142.213z"/>
	<path style="fill:#FFFFFF;" d="M264.166,135.145v2.281c-0.359-0.24-0.668-0.361-0.928-0.361c-0.334,0-0.605,0.121-0.812,0.361
		c-0.207,0.242-0.311,0.554-0.311,0.938v0.891h2.031v2.162h-2.05v5.816h-2.375v-5.816h-0.705v-2.162h0.705v-0.975
		c0-1.354,0.288-2.271,0.862-2.75c0.576-0.479,1.25-0.719,2.023-0.719C263.219,134.811,263.738,134.922,264.166,135.145z"/>
	<path style="fill:#FFFFFF;" d="M270.678,135.145v2.281c-0.358-0.24-0.668-0.361-0.928-0.361c-0.334,0-0.604,0.121-0.811,0.361
		c-0.208,0.242-0.312,0.554-0.312,0.938v0.891h2.032v2.162h-2.051v5.816h-2.375v-5.816h-0.705v-2.162h0.705v-0.975
		c0-1.354,0.287-2.271,0.863-2.75c0.574-0.479,1.248-0.719,2.021-0.719C269.732,134.811,270.252,134.922,270.678,135.145z"/>
	<path style="fill:#FFFFFF;" d="M272.005,136.299c0-0.403,0.146-0.75,0.437-1.042c0.29-0.292,0.64-0.438,1.048-0.438
		s0.758,0.146,1.049,0.438c0.29,0.292,0.436,0.639,0.436,1.042c0,0.41-0.146,0.761-0.436,1.052
		c-0.291,0.292-0.641,0.438-1.049,0.438s-0.758-0.146-1.048-0.438C272.15,137.06,272.005,136.709,272.005,136.299z M272.311,139.254
		h2.376v7.979h-2.376V139.254z"/>
	<path style="fill:#FFFFFF;" d="M282.925,144.468v2.375c-0.816,0.371-1.494,0.557-2.032,0.557c-1.2,0-2.202-0.396-3.006-1.188
		s-1.206-1.781-1.206-2.969c0-1.193,0.372-2.184,1.118-2.969c0.745-0.785,1.689-1.179,2.834-1.179c0.798,0,1.571,0.186,2.319,0.557
		v2.246c-0.692-0.334-1.326-0.502-1.902-0.502c-0.531,0-0.96,0.163-1.284,0.487c-0.325,0.325-0.487,0.753-0.487,1.285
		c0,0.525,0.161,0.951,0.482,1.275c0.321,0.325,0.745,0.487,1.271,0.487C281.508,144.932,282.139,144.777,282.925,144.468z"/>
	<path style="fill:#FFFFFF;" d="M284.613,136.299c0-0.403,0.146-0.75,0.436-1.042c0.291-0.292,0.641-0.438,1.049-0.438
		s0.758,0.146,1.049,0.438c0.29,0.292,0.436,0.639,0.436,1.042c0,0.41-0.146,0.761-0.436,1.052
		c-0.291,0.292-0.641,0.438-1.049,0.438s-0.758-0.146-1.049-0.438C284.759,137.06,284.613,136.709,284.613,136.299z M284.92,139.254
		h2.375v7.979h-2.375V139.254z"/>
	<path style="fill:#FFFFFF;" d="M297.175,143.809h-5.687c0.03,0.514,0.199,0.932,0.505,1.253c0.307,0.321,0.663,0.482,1.071,0.482
		c0.73,0,1.303-0.331,1.717-0.993l2.18,0.725c-0.81,1.416-2.068,2.124-3.775,2.124c-1.256,0-2.254-0.38-2.996-1.142
		c-0.742-0.76-1.113-1.784-1.113-3.07c0-1.156,0.391-2.128,1.173-2.913s1.746-1.179,2.89-1.179c1.15,0,2.111,0.413,2.881,1.239
		c0.771,0.825,1.155,1.856,1.155,3.094V143.809z M291.506,142.213h3.211c-0.223-0.995-0.733-1.493-1.531-1.493
		c-0.458,0-0.837,0.13-1.137,0.39S291.568,141.737,291.506,142.213z"/>
	<path style="fill:#FFFFFF;" d="M301.405,139.254v0.946c0.81-0.761,1.66-1.142,2.551-1.142c0.761,0,1.39,0.312,1.888,0.938
		s0.747,1.423,0.747,2.394v4.843h-2.412v-4.463c0-0.457-0.125-0.844-0.376-1.159c-0.25-0.315-0.555-0.474-0.913-0.474
		c-0.434,0-0.789,0.2-1.067,0.599c-0.278,0.399-0.417,0.914-0.417,1.545v3.952h-2.375v-7.979H301.405z"/>
	<path style="fill:#FFFFFF;" d="M314.719,144.468v2.375c-0.816,0.371-1.494,0.557-2.032,0.557c-1.2,0-2.202-0.396-3.006-1.188
		s-1.206-1.781-1.206-2.969c0-1.193,0.372-2.184,1.118-2.969c0.745-0.785,1.689-1.179,2.834-1.179c0.798,0,1.571,0.186,2.319,0.557
		v2.246c-0.692-0.334-1.326-0.502-1.902-0.502c-0.531,0-0.96,0.163-1.284,0.487c-0.325,0.325-0.487,0.753-0.487,1.285
		c0,0.525,0.161,0.951,0.482,1.275c0.321,0.325,0.745,0.487,1.271,0.487C313.302,144.932,313.933,144.777,314.719,144.468z"/>
	<path style="fill:#FFFFFF;" d="M315.951,139.272h2.535l2.292,4.634l2.04-4.634h2.43l-4.963,11.476h-2.469l1.78-4.084
		L315.951,139.272z"/>
</g>
<g>
	<line style="fill:none;" x1="199.6" y1="118.62" x2="199.6" y2="80.509"/>
	<g>
		<g>
			<polygon style="fill:#001689;" points="202.772,118.62 202.772,98.257 202.772,96.535 215.624,96.535 199.601,80.509 
				183.575,96.535 196.426,96.535 196.426,98.257 196.426,118.62 			"/>
		</g>
	</g>
</g>
<g>
	<path style="fill:#001689;" d="M396.6,3v334H2.6V3H396.6 M399.6,0h-400v340h400V0L399.6,0z"/>
</g>
<rect x="-17.614" y="277.936" style="fill:none;" width="434.427" height="52.459"/>
<g style="enable-background:new    ;">
	<path style="fill:#001689;" d="M56.736,278.154h3.284l2.402,7.686l2.403-7.686h3.167l1.651,12.822h-2.633l-1.132-9.023
		l-2.822,9.023h-1.255l-2.896-9.102l-1.069,9.102h-2.676L56.736,278.154z"/>
	<path style="fill:#001689;" d="M77.114,290.977v-1.436h-0.039c-0.391,0.56-0.785,0.965-1.182,1.216s-0.889,0.376-1.475,0.376
		c-0.983,0-1.82-0.423-2.51-1.27s-1.035-1.875-1.035-3.086c0-1.198,0.368-2.225,1.104-3.081s1.608-1.284,2.617-1.284
		c0.482,0,0.915,0.107,1.299,0.322s0.791,0.557,1.221,1.025v-1.162h2.5v8.379H77.114z M75.278,284.912
		c-0.495,0-0.908,0.197-1.24,0.591s-0.498,0.891-0.498,1.489c0,0.56,0.158,1.011,0.474,1.353s0.731,0.513,1.245,0.513
		c0.495,0,0.918-0.197,1.27-0.591s0.527-0.871,0.527-1.431c0-0.521-0.176-0.972-0.527-1.353S75.76,284.912,75.278,284.912z"/>
	<path style="fill:#001689;" d="M82.036,277.939h2.48v7.915l2.479-3.276h2.999l-2.786,3.699l3.02,4.699h-2.808l-2.905-4.448v4.448
		h-2.48V277.939z"/>
	<path style="fill:#001689;" d="M99.497,287.373h-5.986c0.033,0.54,0.21,0.979,0.532,1.318s0.698,0.508,1.128,0.508
		c0.768,0,1.371-0.349,1.807-1.045l2.295,0.762c-0.853,1.491-2.178,2.236-3.975,2.236c-1.322,0-2.373-0.4-3.154-1.201
		s-1.172-1.878-1.172-3.232c0-1.218,0.412-2.239,1.235-3.066s1.837-1.24,3.042-1.24c1.211,0,2.222,0.435,3.032,1.304
		s1.216,1.955,1.216,3.257V287.373z M93.53,285.693h3.379c-0.234-1.048-0.771-1.572-1.611-1.572c-0.482,0-0.88,0.137-1.196,0.41
		S93.595,285.192,93.53,285.693z"/>
	<path style="fill:#001689;" d="M106.577,279.697h2.5v2.881h1.201v2.295h-1.201v6.104h-2.5v-6.104h-0.957v-2.295h0.957V279.697z"/>
	<path style="fill:#001689;" d="M111.968,277.939h2.539v5.615c0.456-0.391,0.879-0.674,1.27-0.85s0.843-0.264,1.357-0.264
		c0.879,0,1.567,0.317,2.065,0.952s0.747,1.516,0.747,2.642v4.941h-2.52v-4.502c0-0.54-0.138-0.994-0.415-1.362
		s-0.617-0.552-1.021-0.552c-0.514,0-0.89,0.212-1.128,0.635s-0.356,1.084-0.356,1.982v3.799h-2.539V277.939z"/>
	<path style="fill:#001689;" d="M130.21,287.373h-5.986c0.033,0.54,0.21,0.979,0.532,1.318s0.698,0.508,1.128,0.508
		c0.768,0,1.371-0.349,1.807-1.045l2.295,0.762c-0.853,1.491-2.178,2.236-3.975,2.236c-1.322,0-2.373-0.4-3.154-1.201
		s-1.172-1.878-1.172-3.232c0-1.218,0.412-2.239,1.235-3.066s1.837-1.24,3.042-1.24c1.211,0,2.222,0.435,3.032,1.304
		s1.216,1.955,1.216,3.257V287.373z M124.243,285.693h3.379c-0.234-1.048-0.771-1.572-1.611-1.572c-0.482,0-0.88,0.137-1.196,0.41
		S124.308,285.192,124.243,285.693z"/>
	<path style="fill:#001689;" d="M146.987,278.838v3.125c-1.387-0.833-2.601-1.25-3.643-1.25s-1.875,0.358-2.5,1.074
		s-0.938,1.68-0.938,2.891c0,1.146,0.329,2.062,0.986,2.749s1.537,1.03,2.637,1.03c0.963,0,2.116-0.388,3.457-1.162v3.105
		c-1.504,0.501-2.757,0.752-3.76,0.752c-1.725,0-3.19-0.633-4.395-1.899s-1.807-2.811-1.807-4.634c0-1.855,0.614-3.426,1.841-4.712
		s2.72-1.929,4.478-1.929C144.478,277.979,145.692,278.265,146.987,278.838z"/>
	<path style="fill:#001689;" d="M149.087,278.154h7.217v2.539h-4.453v2.588h4.453v2.5h-4.453v2.656h4.453v2.539h-7.217V278.154z"/>
	<path style="fill:#001689;" d="M164.028,278.154h4.385c1.178,0,2.129,0.344,2.852,1.03s1.084,1.59,1.084,2.71
		c0,0.735-0.177,1.434-0.532,2.095s-0.89,1.154-1.606,1.479s-1.328,0.495-1.836,0.508l-1.602,0.039v4.961h-2.744V278.154z
		 M166.733,280.459v3.281h1.074c0.462,0,0.858-0.166,1.187-0.498s0.493-0.726,0.493-1.182c0-0.521-0.186-0.925-0.557-1.211
		s-0.898-0.43-1.582-0.43L166.733,280.459z"/>
	<path style="fill:#001689;" d="M176.851,282.578v1.24h0.039c0.248-0.417,0.536-0.747,0.864-0.991s0.633-0.366,0.913-0.366
		c0.169,0,0.322,0.013,0.459,0.039v2.734c-0.208-0.039-0.414-0.059-0.615-0.059c-0.514,0-0.913,0.181-1.196,0.542
		s-0.425,0.867-0.425,1.519v3.74h-2.539v-8.398H176.851z"/>
	<path style="fill:#001689;" d="M180.503,286.797c0-1.296,0.414-2.354,1.24-3.174s1.888-1.23,3.184-1.23
		c1.205,0,2.215,0.418,3.032,1.255s1.226,1.873,1.226,3.11c0,1.263-0.409,2.312-1.226,3.145s-1.841,1.25-3.071,1.25
		c-1.387,0-2.464-0.441-3.232-1.323S180.503,287.937,180.503,286.797z M186.724,286.797c0-0.566-0.186-1.062-0.557-1.484
		s-0.804-0.635-1.299-0.635c-0.514,0-0.957,0.198-1.328,0.596s-0.557,0.872-0.557,1.426c0,0.605,0.184,1.12,0.552,1.543
		s0.812,0.635,1.333,0.635c0.495,0,0.928-0.207,1.299-0.62S186.724,287.356,186.724,286.797z"/>
	<path style="fill:#001689;" d="M196.938,290.498v-0.986c-0.749,0.95-1.615,1.426-2.598,1.426c-1.055,0-1.935-0.407-2.642-1.221
		s-1.06-1.833-1.06-3.057c0-1.185,0.366-2.192,1.099-3.022s1.613-1.245,2.642-1.245c0.873,0,1.725,0.456,2.559,1.367v-1.162h2.48
		v8.496c0,0.469-0.148,1.008-0.444,1.616s-0.801,1.058-1.514,1.348s-1.538,0.435-2.476,0.435c-1.166,0-2.098-0.218-2.798-0.654
		s-1.203-1.185-1.509-2.246h2.803c0.547,0.762,1.139,1.143,1.777,1.143c0.495,0,0.898-0.207,1.211-0.62
		S196.938,291.162,196.938,290.498z M193.306,286.729c0,0.43,0.187,0.848,0.562,1.255s0.812,0.61,1.313,0.61
		c0.488,0,0.907-0.193,1.255-0.581s0.522-0.861,0.522-1.421c0-0.573-0.166-1.045-0.498-1.416s-0.758-0.557-1.279-0.557
		c-0.527,0-0.972,0.193-1.333,0.581S193.306,286.097,193.306,286.729z"/>
	<path style="fill:#001689;" d="M204.302,282.578v1.24h0.039c0.247-0.417,0.536-0.747,0.864-0.991s0.633-0.366,0.913-0.366
		c0.169,0,0.322,0.013,0.459,0.039v2.734c-0.208-0.039-0.413-0.059-0.615-0.059c-0.515,0-0.913,0.181-1.196,0.542
		s-0.425,0.867-0.425,1.519v3.74h-2.539v-8.398H204.302z"/>
	<path style="fill:#001689;" d="M213.95,290.977v-1.436h-0.039c-0.391,0.56-0.784,0.965-1.182,1.216s-0.889,0.376-1.475,0.376
		c-0.983,0-1.819-0.423-2.51-1.27s-1.035-1.875-1.035-3.086c0-1.198,0.368-2.225,1.104-3.081s1.608-1.284,2.617-1.284
		c0.481,0,0.915,0.107,1.299,0.322s0.791,0.557,1.221,1.025v-1.162h2.5v8.379H213.95z M212.114,284.912
		c-0.495,0-0.908,0.197-1.24,0.591s-0.498,0.891-0.498,1.489c0,0.56,0.157,1.011,0.474,1.353s0.73,0.513,1.245,0.513
		c0.495,0,0.918-0.197,1.27-0.591s0.527-0.871,0.527-1.431c0-0.521-0.176-0.972-0.527-1.353S212.596,284.912,212.114,284.912z"/>
	<path style="fill:#001689;" d="M221.567,282.578v1.338c0.117-0.078,0.29-0.228,0.518-0.449s0.448-0.408,0.659-0.562
		s0.465-0.276,0.762-0.371s0.564-0.142,0.806-0.142c0.384,0,0.801,0.135,1.25,0.405s0.823,0.75,1.123,1.44
		c0.521-0.664,1.03-1.138,1.528-1.421s0.962-0.425,1.392-0.425c0.762,0,1.406,0.314,1.934,0.942s0.791,1.401,0.791,2.319v5.322h-2.5
		v-4.658c0-0.462-0.127-0.852-0.381-1.167s-0.56-0.474-0.918-0.474c-0.43,0-0.801,0.179-1.113,0.537s-0.469,0.784-0.469,1.279v4.482
		h-2.48v-4.541c0-0.488-0.128-0.9-0.386-1.235s-0.568-0.503-0.933-0.503c-0.43,0-0.801,0.184-1.113,0.552s-0.469,0.809-0.469,1.323
		v4.404h-2.52v-8.398H221.567z"/>
	<path style="fill:#001689;" d="M242.651,282.598v1.221h0.039c0.364-0.488,0.743-0.845,1.138-1.069s0.867-0.337,1.421-0.337
		c1.003,0,1.856,0.439,2.563,1.318s1.06,1.946,1.06,3.203c0,1.152-0.343,2.141-1.03,2.964s-1.502,1.235-2.446,1.235
		c-0.579,0-1.064-0.12-1.455-0.361s-0.794-0.625-1.211-1.152h-0.039v5.059h-2.539v-12.08H242.651z M246.255,286.914
		c0-0.547-0.176-1.018-0.527-1.411s-0.771-0.591-1.26-0.591c-0.481,0-0.892,0.193-1.23,0.581s-0.508,0.861-0.508,1.421
		c0,0.54,0.177,1.003,0.532,1.387s0.786,0.576,1.294,0.576c0.495,0,0.901-0.183,1.221-0.547S246.255,287.493,246.255,286.914z"/>
	<path style="fill:#001689;" d="M256.284,290.977v-1.436h-0.039c-0.391,0.56-0.784,0.965-1.182,1.216s-0.889,0.376-1.475,0.376
		c-0.983,0-1.819-0.423-2.51-1.27s-1.035-1.875-1.035-3.086c0-1.198,0.368-2.225,1.104-3.081s1.608-1.284,2.617-1.284
		c0.481,0,0.915,0.107,1.299,0.322s0.791,0.557,1.221,1.025v-1.162h2.5v8.379H256.284z M254.448,284.912
		c-0.495,0-0.908,0.197-1.24,0.591s-0.498,0.891-0.498,1.489c0,0.56,0.157,1.011,0.474,1.353s0.73,0.513,1.245,0.513
		c0.495,0,0.918-0.197,1.27-0.591s0.527-0.871,0.527-1.431c0-0.521-0.176-0.972-0.527-1.353S254.93,284.912,254.448,284.912z"/>
	<path style="fill:#001689;" d="M263.647,282.578v1.24h0.039c0.247-0.417,0.535-0.747,0.864-0.991s0.633-0.366,0.913-0.366
		c0.169,0,0.322,0.013,0.459,0.039v2.734c-0.208-0.039-0.413-0.059-0.615-0.059c-0.515,0-0.913,0.181-1.196,0.542
		s-0.425,0.867-0.425,1.519v3.74h-2.539v-8.398H263.647z"/>
	<path style="fill:#001689;" d="M268.521,279.697h2.5v2.881h1.201v2.295h-1.201v6.104h-2.5v-6.104h-0.957v-2.295h0.957V279.697z"/>
	<path style="fill:#001689;" d="M278.813,286.797c0-1.296,0.413-2.354,1.24-3.174s1.888-1.23,3.184-1.23
		c1.204,0,2.215,0.418,3.032,1.255s1.226,1.873,1.226,3.11c0,1.263-0.408,2.312-1.226,3.145s-1.841,1.25-3.071,1.25
		c-1.387,0-2.464-0.441-3.232-1.323S278.813,287.937,278.813,286.797z M285.034,286.797c0-0.566-0.186-1.062-0.557-1.484
		s-0.804-0.635-1.299-0.635c-0.515,0-0.957,0.198-1.328,0.596s-0.557,0.872-0.557,1.426c0,0.605,0.184,1.12,0.552,1.543
		s0.812,0.635,1.333,0.635c0.495,0,0.928-0.207,1.299-0.62S285.034,287.356,285.034,286.797z"/>
	<path style="fill:#001689;" d="M294.312,278.252v2.402c-0.378-0.254-0.703-0.381-0.977-0.381c-0.352,0-0.637,0.127-0.854,0.381
		s-0.327,0.583-0.327,0.986v0.938h2.139v2.275h-2.158v6.123h-2.5v-6.123h-0.742v-2.275h0.742v-1.025
		c0-1.426,0.303-2.391,0.908-2.896s1.315-0.757,2.129-0.757C293.315,277.9,293.862,278.018,294.312,278.252z"/>
	<path style="fill:#001689;" d="M301.948,282.598h2.668l2.412,4.878l2.148-4.878h2.557l-5.223,12.08h-2.6l1.874-4.3L301.948,282.598
		z"/>
	<path style="fill:#001689;" d="M312.827,286.797c0-1.296,0.413-2.354,1.24-3.174s1.888-1.23,3.184-1.23
		c1.204,0,2.215,0.418,3.032,1.255s1.226,1.873,1.226,3.11c0,1.263-0.408,2.312-1.226,3.145s-1.841,1.25-3.071,1.25
		c-1.387,0-2.464-0.441-3.232-1.323S312.827,287.937,312.827,286.797z M319.048,286.797c0-0.566-0.186-1.062-0.557-1.484
		s-0.804-0.635-1.299-0.635c-0.515,0-0.957,0.198-1.328,0.596s-0.557,0.872-0.557,1.426c0,0.605,0.184,1.12,0.552,1.543
		s0.812,0.635,1.333,0.635c0.495,0,0.928-0.207,1.299-0.62S319.048,287.356,319.048,286.797z"/>
	<path style="fill:#001689;" d="M323.657,282.598h2.539v4.023c0,0.579,0.147,1.062,0.443,1.45c0.295,0.388,0.66,0.581,1.095,0.581
		c0.461,0,0.849-0.188,1.163-0.562c0.315-0.374,0.473-0.845,0.473-1.411v-4.082h2.539v4.883c0,1.035-0.396,1.902-1.186,2.603
		s-1.773,1.05-2.95,1.05c-1.248,0-2.247-0.352-2.994-1.055c-0.748-0.703-1.122-1.638-1.122-2.803V282.598z"/>
	<path style="fill:#001689;" d="M336.665,282.578v1.24h0.039c0.247-0.417,0.535-0.747,0.864-0.991s0.633-0.366,0.913-0.366
		c0.169,0,0.322,0.013,0.459,0.039v2.734c-0.208-0.039-0.413-0.059-0.615-0.059c-0.515,0-0.913,0.181-1.196,0.542
		s-0.425,0.867-0.425,1.519v3.74h-2.539v-8.398H336.665z"/>
</g>
<g style="enable-background:new    ;">
	<path style="fill:#001689;" d="M76.06,297.939h2.5v13.037h-2.5V297.939z"/>
	<path style="fill:#001689;" d="M88.96,307.373h-5.986c0.033,0.54,0.21,0.979,0.532,1.318s0.698,0.508,1.128,0.508
		c0.768,0,1.371-0.349,1.807-1.045l2.295,0.762c-0.853,1.491-2.178,2.236-3.975,2.236c-1.322,0-2.373-0.4-3.154-1.201
		s-1.172-1.878-1.172-3.232c0-1.218,0.412-2.239,1.235-3.066s1.837-1.24,3.042-1.24c1.211,0,2.222,0.435,3.032,1.304
		s1.216,1.955,1.216,3.257V307.373z M82.993,305.693h3.379c-0.234-1.048-0.771-1.572-1.611-1.572c-0.482,0-0.88,0.137-1.196,0.41
		S83.058,305.192,82.993,305.693z"/>
	<path style="fill:#001689;" d="M96.294,310.977v-1.436h-0.039c-0.391,0.56-0.785,0.965-1.182,1.216s-0.889,0.376-1.475,0.376
		c-0.983,0-1.82-0.423-2.51-1.27s-1.035-1.875-1.035-3.086c0-1.198,0.368-2.225,1.104-3.081s1.608-1.284,2.617-1.284
		c0.482,0,0.915,0.107,1.299,0.322s0.791,0.557,1.221,1.025v-1.162h2.5v8.379H96.294z M94.458,304.912
		c-0.495,0-0.908,0.197-1.24,0.591s-0.498,0.891-0.498,1.489c0,0.56,0.158,1.011,0.474,1.353s0.731,0.513,1.245,0.513
		c0.495,0,0.918-0.197,1.27-0.591s0.527-0.871,0.527-1.431c0-0.521-0.176-0.972-0.527-1.353S94.94,304.912,94.458,304.912z"/>
	<path style="fill:#001689;" d="M103.657,302.578v1.24h0.039c0.248-0.417,0.536-0.747,0.864-0.991s0.633-0.366,0.913-0.366
		c0.169,0,0.322,0.013,0.459,0.039v2.734c-0.208-0.039-0.414-0.059-0.615-0.059c-0.514,0-0.913,0.181-1.196,0.542
		s-0.425,0.867-0.425,1.519v3.74h-2.539v-8.398H103.657z"/>
	<path style="fill:#001689;" d="M110.425,302.578v0.996c0.853-0.801,1.748-1.201,2.686-1.201c0.801,0,1.463,0.329,1.987,0.986
		s0.786,1.497,0.786,2.52v5.098h-2.539v-4.697c0-0.481-0.132-0.889-0.396-1.221s-0.584-0.498-0.962-0.498
		c-0.456,0-0.83,0.21-1.123,0.63s-0.439,0.962-0.439,1.626v4.16h-2.5v-8.398H110.425z"/>
	<path style="fill:#001689;" d="M118.14,299.468c0-0.425,0.153-0.79,0.459-1.097c0.306-0.308,0.674-0.461,1.104-0.461
		s0.797,0.153,1.104,0.461c0.306,0.307,0.459,0.672,0.459,1.097c0,0.431-0.153,0.8-0.459,1.107c-0.306,0.307-0.674,0.46-1.104,0.46
		s-0.797-0.153-1.104-0.46C118.292,300.268,118.14,299.898,118.14,299.468z M118.462,302.578h2.5v8.398h-2.5V302.578z"/>
	<path style="fill:#001689;" d="M126.235,302.578v0.996c0.853-0.801,1.748-1.201,2.686-1.201c0.801,0,1.463,0.329,1.987,0.986
		s0.786,1.497,0.786,2.52v5.098h-2.539v-4.697c0-0.481-0.132-0.889-0.396-1.221s-0.584-0.498-0.962-0.498
		c-0.456,0-0.83,0.21-1.123,0.63s-0.439,0.962-0.439,1.626v4.16h-2.5v-8.398H126.235z"/>
	<path style="fill:#001689;" d="M139.751,310.498v-0.986c-0.749,0.95-1.615,1.426-2.598,1.426c-1.055,0-1.935-0.407-2.642-1.221
		s-1.06-1.833-1.06-3.057c0-1.185,0.366-2.192,1.099-3.022s1.613-1.245,2.642-1.245c0.873,0,1.725,0.456,2.559,1.367v-1.162h2.48
		v8.496c0,0.469-0.148,1.008-0.444,1.616s-0.801,1.058-1.514,1.348s-1.538,0.435-2.476,0.435c-1.166,0-2.098-0.218-2.798-0.654
		s-1.203-1.185-1.509-2.246h2.803c0.547,0.762,1.139,1.143,1.777,1.143c0.495,0,0.898-0.207,1.211-0.62
		S139.751,311.162,139.751,310.498z M136.118,306.729c0,0.43,0.187,0.848,0.562,1.255s0.812,0.61,1.313,0.61
		c0.488,0,0.907-0.193,1.255-0.581s0.522-0.861,0.522-1.421c0-0.573-0.166-1.045-0.498-1.416s-0.758-0.557-1.279-0.557
		c-0.527,0-0.972,0.193-1.333,0.581S136.118,306.097,136.118,306.729z"/>
	<path style="fill:#001689;" d="M155.63,310.977v-1.436h-0.039c-0.391,0.56-0.785,0.965-1.182,1.216s-0.889,0.376-1.475,0.376
		c-0.983,0-1.82-0.423-2.51-1.27s-1.035-1.875-1.035-3.086c0-1.198,0.368-2.225,1.104-3.081s1.608-1.284,2.617-1.284
		c0.482,0,0.915,0.107,1.299,0.322s0.791,0.557,1.221,1.025v-1.162h2.5v8.379H155.63z M153.794,304.912
		c-0.495,0-0.908,0.197-1.24,0.591s-0.498,0.891-0.498,1.489c0,0.56,0.158,1.011,0.474,1.353s0.731,0.513,1.245,0.513
		c0.495,0,0.918-0.197,1.27-0.591s0.527-0.871,0.527-1.431c0-0.521-0.176-0.972-0.527-1.353S154.276,304.912,153.794,304.912z"/>
	<path style="fill:#001689;" d="M163.306,302.578v0.996c0.853-0.801,1.748-1.201,2.686-1.201c0.801,0,1.463,0.329,1.987,0.986
		s0.786,1.497,0.786,2.52v5.098h-2.539v-4.697c0-0.481-0.132-0.889-0.396-1.221s-0.584-0.498-0.962-0.498
		c-0.456,0-0.83,0.21-1.123,0.63s-0.439,0.962-0.439,1.626v4.16h-2.5v-8.398H163.306z"/>
	<path style="fill:#001689;" d="M176.802,297.939h2.52v13.037h-2.461v-1.436h-0.039c-0.728,1.048-1.631,1.572-2.71,1.572
		c-0.962,0-1.783-0.42-2.462-1.26c-0.68-0.84-1.019-1.865-1.019-3.076s0.351-2.244,1.053-3.101c0.702-0.856,1.543-1.284,2.525-1.284
		c0.559,0,1.03,0.103,1.414,0.308c0.383,0.205,0.776,0.539,1.18,1.001V297.939z M174.961,304.873c-0.409,0-0.792,0.188-1.149,0.566
		s-0.536,0.889-0.536,1.533c0,0.515,0.157,0.954,0.472,1.318s0.696,0.547,1.145,0.547c0.532,0,0.977-0.197,1.334-0.591
		s0.536-0.884,0.536-1.47c0-0.508-0.174-0.952-0.521-1.333S175.467,304.873,174.961,304.873z"/>
	<path style="fill:#001689;" d="M192.759,310.498v-0.986c-0.749,0.95-1.615,1.426-2.598,1.426c-1.055,0-1.935-0.407-2.642-1.221
		s-1.06-1.833-1.06-3.057c0-1.185,0.366-2.192,1.099-3.022s1.613-1.245,2.642-1.245c0.873,0,1.725,0.456,2.559,1.367v-1.162h2.48
		v8.496c0,0.469-0.148,1.008-0.444,1.616s-0.801,1.058-1.514,1.348s-1.538,0.435-2.476,0.435c-1.166,0-2.098-0.218-2.798-0.654
		s-1.203-1.185-1.509-2.246h2.803c0.547,0.762,1.139,1.143,1.777,1.143c0.495,0,0.898-0.207,1.211-0.62
		S192.759,311.162,192.759,310.498z M189.126,306.729c0,0.43,0.187,0.848,0.562,1.255s0.812,0.61,1.313,0.61
		c0.488,0,0.907-0.193,1.255-0.581s0.522-0.861,0.522-1.421c0-0.573-0.166-1.045-0.498-1.416s-0.758-0.557-1.279-0.557
		c-0.527,0-0.972,0.193-1.333,0.581S189.126,306.097,189.126,306.729z"/>
	<path style="fill:#001689;" d="M200.122,302.578v1.24h0.039c0.248-0.417,0.536-0.747,0.864-0.991s0.633-0.366,0.913-0.366
		c0.169,0,0.322,0.013,0.459,0.039v2.734c-0.208-0.039-0.413-0.059-0.615-0.059c-0.515,0-0.913,0.181-1.196,0.542
		s-0.425,0.867-0.425,1.519v3.74h-2.539v-8.398H200.122z"/>
	<path style="fill:#001689;" d="M203.774,306.797c0-1.296,0.413-2.354,1.24-3.174s1.888-1.23,3.184-1.23
		c1.204,0,2.216,0.418,3.032,1.255s1.226,1.873,1.226,3.11c0,1.263-0.409,2.312-1.226,3.145s-1.841,1.25-3.071,1.25
		c-1.387,0-2.464-0.441-3.232-1.323S203.774,307.937,203.774,306.797z M209.995,306.797c0-0.566-0.186-1.062-0.557-1.484
		s-0.804-0.635-1.299-0.635c-0.515,0-0.957,0.198-1.328,0.596s-0.557,0.872-0.557,1.426c0,0.605,0.185,1.12,0.552,1.543
		s0.812,0.635,1.333,0.635c0.495,0,0.928-0.207,1.299-0.62S209.995,307.356,209.995,306.797z"/>
	<path style="fill:#001689;" d="M213.257,302.578h2.64l2.258,4.98l1.992-4.98h1.629l1.984,4.941l2.242-4.941h2.636l-3.829,8.398
		h-2.006l-1.826-4.6l-1.85,4.6h-2.052L213.257,302.578z"/>
	<path style="fill:#001689;" d="M230.054,299.697h2.5v2.881h1.201v2.295h-1.201v6.104h-2.5v-6.104h-0.957v-2.295h0.957V299.697z"/>
	<path style="fill:#001689;" d="M235.444,297.939h2.539v5.615c0.456-0.391,0.879-0.674,1.27-0.85s0.843-0.264,1.357-0.264
		c0.879,0,1.567,0.317,2.065,0.952s0.747,1.516,0.747,2.642v4.941h-2.52v-4.502c0-0.54-0.138-0.994-0.415-1.362
		s-0.617-0.552-1.021-0.552c-0.515,0-0.89,0.212-1.128,0.635s-0.356,1.084-0.356,1.982v3.799h-2.539V297.939z"/>
	<path style="fill:#001689;" d="M257.368,303.76l-1.699,1.035c-0.491-0.495-0.948-0.742-1.374-0.742
		c-0.209,0-0.389,0.059-0.539,0.176c-0.15,0.116-0.226,0.26-0.226,0.429c0,0.272,0.087,0.471,0.261,0.595
		c0.174,0.123,0.637,0.313,1.387,0.572c0.75,0.258,1.342,0.589,1.775,0.992s0.649,0.964,0.649,1.68c0,0.723-0.325,1.343-0.977,1.86
		s-1.433,0.776-2.344,0.776c-0.618,0-1.235-0.173-1.851-0.518s-1.138-0.872-1.567-1.582l2.021-0.918
		c0.456,0.788,0.928,1.182,1.416,1.182c0.222,0,0.42-0.071,0.596-0.214s0.264-0.306,0.264-0.487c0-0.233-0.101-0.41-0.303-0.531
		s-0.352-0.182-0.449-0.182c-0.039-0.045-0.273-0.137-0.703-0.273c-1.68-0.548-2.52-1.438-2.52-2.668
		c0-0.742,0.302-1.35,0.903-1.821s1.389-0.708,2.358-0.708C255.522,302.412,256.496,302.861,257.368,303.76z"/>
	<path style="fill:#001689;" d="M259.722,299.697h2.5v2.881h1.201v2.295h-1.201v6.104h-2.5v-6.104h-0.957v-2.295h0.957V299.697z"/>
	<path style="fill:#001689;" d="M267.3,302.578v1.24h0.039c0.247-0.417,0.536-0.747,0.864-0.991s0.633-0.366,0.913-0.366
		c0.169,0,0.322,0.013,0.459,0.039v2.734c-0.208-0.039-0.413-0.059-0.615-0.059c-0.515,0-0.913,0.181-1.196,0.542
		s-0.425,0.867-0.425,1.519v3.74H264.8v-8.398H267.3z"/>
	<path style="fill:#001689;" d="M276.948,310.977v-1.436h-0.039c-0.391,0.56-0.784,0.965-1.182,1.216s-0.889,0.376-1.475,0.376
		c-0.983,0-1.819-0.423-2.51-1.27s-1.035-1.875-1.035-3.086c0-1.198,0.368-2.225,1.104-3.081s1.608-1.284,2.617-1.284
		c0.482,0,0.915,0.107,1.299,0.322s0.791,0.557,1.221,1.025v-1.162h2.5v8.379H276.948z M275.112,304.912
		c-0.495,0-0.908,0.197-1.24,0.591s-0.498,0.891-0.498,1.489c0,0.56,0.157,1.011,0.474,1.353s0.73,0.513,1.245,0.513
		c0.495,0,0.918-0.197,1.27-0.591s0.527-0.871,0.527-1.431c0-0.521-0.176-0.972-0.527-1.353S275.594,304.912,275.112,304.912z"/>
	<path style="fill:#001689;" d="M282.329,299.697h2.5v2.881h1.201v2.295h-1.201v6.104h-2.5v-6.104h-0.957v-2.295h0.957V299.697z"/>
	<path style="fill:#001689;" d="M295.347,307.373h-5.986c0.032,0.54,0.21,0.979,0.532,1.318s0.698,0.508,1.128,0.508
		c0.769,0,1.37-0.349,1.807-1.045l2.295,0.762c-0.853,1.491-2.178,2.236-3.975,2.236c-1.321,0-2.373-0.4-3.154-1.201
		s-1.172-1.878-1.172-3.232c0-1.218,0.412-2.239,1.235-3.066s1.838-1.24,3.042-1.24c1.211,0,2.222,0.435,3.032,1.304
		s1.216,1.955,1.216,3.257V307.373z M289.38,305.693h3.379c-0.234-1.048-0.771-1.572-1.611-1.572c-0.481,0-0.881,0.137-1.196,0.41
		S289.445,305.192,289.38,305.693z"/>
	<path style="fill:#001689;" d="M303.101,310.498v-0.986c-0.749,0.95-1.614,1.426-2.598,1.426c-1.055,0-1.936-0.407-2.642-1.221
		s-1.06-1.833-1.06-3.057c0-1.185,0.366-2.192,1.099-3.022s1.613-1.245,2.642-1.245c0.872,0,1.726,0.456,2.559,1.367v-1.162h2.48
		v8.496c0,0.469-0.148,1.008-0.444,1.616s-0.801,1.058-1.514,1.348s-1.538,0.435-2.476,0.435c-1.165,0-2.098-0.218-2.798-0.654
		s-1.203-1.185-1.509-2.246h2.803c0.547,0.762,1.14,1.143,1.777,1.143c0.495,0,0.898-0.207,1.211-0.62
		S303.101,311.162,303.101,310.498z M299.468,306.729c0,0.43,0.188,0.848,0.562,1.255s0.812,0.61,1.313,0.61
		c0.488,0,0.906-0.193,1.255-0.581s0.522-0.861,0.522-1.421c0-0.573-0.166-1.045-0.498-1.416s-0.759-0.557-1.279-0.557
		c-0.527,0-0.972,0.193-1.333,0.581S299.468,306.097,299.468,306.729z"/>
	<path style="fill:#001689;" d="M307.397,302.598h2.668l2.412,4.878l2.148-4.878h2.557l-5.223,12.08h-2.6l1.874-4.3L307.397,302.598
		z"/>
</g>
</svg>
