<?xml version="1.0" encoding="iso-8859-1"?>
<!-- Generator: Adobe Illustrator 16.0.0, SVG Export Plug-In . SVG Version: 6.00 Build 0)  -->
<!DOCTYPE svg PUBLIC "-//W3C//DTD SVG 1.1//EN" "http://www.w3.org/Graphics/SVG/1.1/DTD/svg11.dtd">
<svg version="1.1" id="Layer_1" xmlns="http://www.w3.org/2000/svg" xmlns:xlink="http://www.w3.org/1999/xlink" x="0px" y="0px"
	 width="346px" height="159.385px" viewBox="127.5 402.5 346 159.385" style="enable-background:new 127.5 402.5 346 159.385;"
	 xml:space="preserve">
<rect x="132.459" y="405.508" style="opacity:0.1;fill:#FBB040;enable-background:new    ;" width="336.885" height="151.59"/>
<g>
	<rect x="200.862" y="445.751" style="fill:#001689;" width="204.921" height="16.735"/>
	<path d="M303.817,437.197H277.35v12.14l15.706,0.094l0.023,8.909H277.35v12.454h26.467l0.067,9.395h-37.131v-52.144l37.063-0.106
		L303.817,437.197L303.817,437.197z"/>
	<path d="M219.283,433.553c4.176-4.271,9.49-6.406,15.944-6.406c5.997,0,9.968,0.071,15.712,4.625c0,0,2.546,2.103,4.113,5.396
		c1.396,2.939,1.086,4.923,1.086,4.923l-9.746,0.062c-2.675-3.739-6.071-5.854-10.755-5.854c-3.862,0-6.909,1.594-9.139,4.779
		c-2.229,3.188-3.343,7.695-3.343,13.525c0,5.833,1.172,10.198,3.517,13.104c2.344,2.905,5.323,4.355,8.935,4.355
		c4.03,0,5.71-0.758,6.973-1.502c1.442-0.847,3.307-2.515,3.813-4.939l10.167,0.017c-1.093,5.009-3.513,8.752-6.18,10.86
		c-3.815,3.549-8.608,4.957-14.569,4.957c-7.38,0-13.178-2.395-17.4-7.18c-4.223-4.811-6.333-11.403-6.333-19.781
		C212.076,445.438,214.477,438.456,219.283,433.553z"/>
	<g style="enable-background:new    ;">
		<path d="M319.133,429.285c0.865-0.885,1.967-1.327,3.304-1.327c1.788,0,3.097,0.593,3.924,1.779
			c0.456,0.666,0.702,1.334,0.735,2.005h-2.246c-0.143-0.516-0.326-0.904-0.549-1.167c-0.4-0.466-0.993-0.699-1.779-0.699
			c-0.8,0-1.431,0.329-1.893,0.987c-0.462,0.659-0.693,1.591-0.693,2.797c0,1.205,0.244,2.107,0.731,2.708s1.106,0.9,1.858,0.9
			c0.77,0,1.357-0.258,1.762-0.772c0.223-0.277,0.408-0.692,0.556-1.247h2.231c-0.192,1.172-0.684,2.124-1.475,2.858
			c-0.791,0.733-1.805,1.101-3.041,1.101c-1.529,0-2.731-0.496-3.606-1.487c-0.875-0.996-1.312-2.362-1.312-4.098
			C317.64,431.747,318.137,430.301,319.133,429.285z"/>
		<path d="M335.35,437.937c-0.672,0.828-1.689,1.242-3.055,1.242c-1.367,0-2.385-0.414-3.056-1.242
			c-0.671-0.827-1.006-1.824-1.006-2.99c0-1.146,0.335-2.139,1.006-2.979c0.671-0.84,1.688-1.26,3.056-1.26
			c1.365,0,2.383,0.42,3.055,1.26c0.67,0.841,1.006,1.834,1.006,2.979C336.355,436.112,336.02,437.109,335.35,437.937z
			 M333.688,436.788c0.324-0.432,0.488-1.046,0.488-1.842s-0.164-1.408-0.488-1.838c-0.326-0.43-0.793-0.645-1.4-0.645
			s-1.076,0.215-1.404,0.645s-0.492,1.042-0.492,1.838s0.164,1.41,0.492,1.842c0.328,0.433,0.797,0.648,1.404,0.648
			S333.361,437.221,333.688,436.788z"/>
		<path d="M344.251,431.418c0.521,0.43,0.78,1.144,0.78,2.14v5.352h-2.129v-4.834c0-0.418-0.055-0.738-0.166-0.962
			c-0.203-0.409-0.589-0.613-1.158-0.613c-0.699,0-1.18,0.3-1.44,0.897c-0.135,0.315-0.202,0.719-0.202,1.21v4.302h-2.078v-7.933
			h2.012v1.159c0.267-0.408,0.519-0.702,0.756-0.882c0.426-0.321,0.965-0.481,1.619-0.481
			C343.062,430.772,343.73,430.987,344.251,431.418z"/>
		<path d="M346.147,432.515v-1.479h1.108v-2.217h2.056v2.217h1.29v1.479h-1.29v4.2c0,0.325,0.041,0.528,0.124,0.608
			c0.082,0.08,0.336,0.12,0.758,0.12c0.063,0,0.131-0.001,0.201-0.003c0.07-0.003,0.139-0.007,0.207-0.012v1.554l-0.984,0.036
			c-0.981,0.034-1.652-0.136-2.012-0.511c-0.233-0.237-0.35-0.604-0.35-1.101v-4.893H346.147z"/>
		<path d="M354.072,430.015h-2.107v-1.918h2.107V430.015z M351.965,430.962h2.107v7.947h-2.107V430.962z"/>
		<path d="M362.493,431.418c0.521,0.43,0.78,1.144,0.78,2.14v5.352h-2.129v-4.834c0-0.418-0.055-0.738-0.166-0.962
			c-0.203-0.409-0.589-0.613-1.158-0.613c-0.699,0-1.18,0.3-1.44,0.897c-0.135,0.315-0.202,0.719-0.202,1.21v4.302H356.1v-7.933
			h2.012v1.159c0.267-0.408,0.519-0.702,0.756-0.882c0.426-0.321,0.965-0.481,1.619-0.481
			C361.304,430.772,361.973,430.987,362.493,431.418z"/>
		<path d="M367.276,430.962v4.79c0,0.452,0.054,0.793,0.159,1.021c0.189,0.404,0.559,0.605,1.11,0.605
			c0.706,0,1.189-0.286,1.45-0.86c0.136-0.311,0.203-0.722,0.203-1.232v-4.323h2.107v7.947h-2.02v-1.123
			c-0.02,0.024-0.068,0.098-0.145,0.219c-0.078,0.122-0.17,0.229-0.277,0.321c-0.324,0.291-0.639,0.491-0.941,0.598
			s-0.658,0.16-1.064,0.16c-1.174,0-1.963-0.423-2.371-1.269c-0.227-0.467-0.342-1.154-0.342-2.063v-4.79H367.276z"/>
		<path d="M376.463,430.015h-2.107v-1.918h2.107V430.015z M374.355,430.962h2.107v7.947h-2.107V430.962z"/>
		<path d="M384.883,431.418c0.521,0.43,0.781,1.144,0.781,2.14v5.352h-2.129v-4.834c0-0.418-0.056-0.738-0.166-0.962
			c-0.203-0.409-0.59-0.613-1.158-0.613c-0.7,0-1.18,0.3-1.441,0.897c-0.135,0.315-0.202,0.719-0.202,1.21v4.302h-2.077v-7.933
			h2.012v1.159c0.266-0.408,0.518-0.702,0.755-0.882c0.427-0.321,0.966-0.481,1.619-0.481
			C383.693,430.772,384.363,430.987,384.883,431.418z"/>
		<path d="M391.527,430.955c0.505,0.209,0.912,0.593,1.224,1.151v-1.145h2.026v7.539c0,1.025-0.172,1.798-0.518,2.318
			c-0.593,0.895-1.73,1.342-3.412,1.342c-1.016,0-1.844-0.199-2.486-0.598c-0.641-0.399-0.996-0.994-1.064-1.787h2.261
			c0.058,0.243,0.153,0.418,0.284,0.525c0.224,0.189,0.6,0.284,1.13,0.284c0.749,0,1.249-0.25,1.502-0.751
			c0.165-0.32,0.248-0.86,0.248-1.618v-0.511c-0.199,0.341-0.413,0.596-0.642,0.766c-0.413,0.316-0.95,0.474-1.611,0.474
			c-1.021,0-1.836-0.358-2.446-1.075s-0.915-1.688-0.915-2.913c0-1.181,0.294-2.174,0.881-2.978c0.588-0.805,1.42-1.207,2.498-1.207
			C390.885,430.772,391.231,430.833,391.527,430.955z M392.235,436.652c0.334-0.366,0.501-0.951,0.501-1.753
			c0-0.754-0.158-1.327-0.476-1.721s-0.741-0.591-1.274-0.591c-0.727,0-1.227,0.343-1.503,1.028
			c-0.146,0.364-0.218,0.813-0.218,1.349c0,0.462,0.078,0.872,0.232,1.232c0.281,0.671,0.784,1.006,1.51,1.006
			C391.492,437.203,391.901,437.02,392.235,436.652z"/>
	</g>
	<g style="enable-background:new    ;">
		<path style="fill:#FFFFFF;" d="M326.053,450.777h-5.687v2.282h5.221v1.866h-5.221v2.764h5.95v1.932h-8.145v-10.747h7.881V450.777z
			"/>
		<path style="fill:#FFFFFF;" d="M332.112,451.802c0.374,0.211,0.678,0.504,0.911,0.878v-3.791h2.107v10.732h-2.02v-1.101
			c-0.297,0.471-0.635,0.813-1.014,1.027s-0.851,0.321-1.414,0.321c-0.93,0-1.711-0.376-2.345-1.127s-0.951-1.714-0.951-2.891
			c0-1.356,0.312-2.423,0.937-3.2c0.625-0.778,1.459-1.167,2.505-1.167C331.311,451.484,331.738,451.59,332.112,451.802z
			 M332.623,457.463c0.306-0.438,0.459-1.004,0.459-1.698c0-0.973-0.246-1.668-0.736-2.086c-0.302-0.252-0.652-0.379-1.051-0.379
			c-0.607,0-1.053,0.229-1.338,0.689c-0.283,0.459-0.426,1.029-0.426,1.709c0,0.734,0.145,1.321,0.434,1.761
			c0.289,0.44,0.729,0.66,1.316,0.66S332.316,457.9,332.623,457.463z"/>
		<path style="fill:#FFFFFF;" d="M339.09,451.674v4.79c0,0.452,0.053,0.793,0.159,1.021c0.188,0.404,0.559,0.605,1.11,0.605
			c0.706,0,1.189-0.286,1.451-0.86c0.135-0.311,0.203-0.722,0.203-1.232v-4.323h2.107v7.947h-2.021v-1.123
			c-0.019,0.024-0.067,0.098-0.146,0.219c-0.077,0.122-0.17,0.229-0.275,0.321c-0.325,0.291-0.639,0.491-0.941,0.598
			c-0.304,0.106-0.658,0.16-1.066,0.16c-1.172,0-1.963-0.423-2.369-1.269c-0.229-0.467-0.342-1.154-0.342-2.063v-4.79H339.09z"/>
		<path style="fill:#FFFFFF;" d="M350.895,454.524c-0.039-0.296-0.14-0.563-0.301-0.802c-0.233-0.32-0.597-0.481-1.088-0.481
			c-0.702,0-1.182,0.348-1.44,1.043c-0.137,0.368-0.204,0.858-0.204,1.469c0,0.582,0.067,1.05,0.204,1.404
			c0.249,0.66,0.716,0.991,1.403,0.991c0.487,0,0.833-0.132,1.037-0.394c0.205-0.263,0.33-0.603,0.373-1.021h2.122
			c-0.049,0.633-0.277,1.23-0.687,1.794c-0.652,0.909-1.617,1.363-2.896,1.363c-1.28,0-2.222-0.379-2.824-1.137
			c-0.604-0.759-0.906-1.742-0.906-2.95c0-1.363,0.334-2.424,1-3.182c0.667-0.759,1.586-1.138,2.76-1.138
			c0.996,0,1.812,0.224,2.447,0.671c0.636,0.447,1.012,1.237,1.129,2.369H350.895z"/>
		<path style="fill:#FFFFFF;" d="M357.592,454.787c0.387-0.049,0.664-0.109,0.83-0.183c0.299-0.126,0.448-0.323,0.448-0.59
			c0-0.326-0.114-0.551-0.344-0.675s-0.565-0.186-1.009-0.186c-0.498,0-0.85,0.121-1.057,0.364c-0.148,0.18-0.246,0.423-0.296,0.729
			h-2.005c0.043-0.695,0.238-1.267,0.586-1.714c0.551-0.7,1.498-1.05,2.841-1.05c0.874,0,1.649,0.173,2.329,0.518
			c0.678,0.346,1.018,0.996,1.018,1.954v3.646c0,0.253,0.004,0.559,0.014,0.919c0.016,0.271,0.057,0.457,0.125,0.554
			c0.067,0.098,0.17,0.178,0.306,0.24v0.307h-2.261c-0.062-0.16-0.106-0.311-0.131-0.452c-0.023-0.141-0.043-0.301-0.059-0.481
			c-0.288,0.312-0.621,0.576-0.997,0.795c-0.45,0.258-0.958,0.387-1.525,0.387c-0.724,0-1.321-0.205-1.793-0.616
			s-0.708-0.993-0.708-1.746c0-0.978,0.38-1.685,1.139-2.122c0.416-0.238,1.029-0.408,1.836-0.51L357.592,454.787z M358.862,455.757
			c-0.133,0.083-0.267,0.149-0.403,0.2c-0.135,0.052-0.32,0.099-0.557,0.143l-0.474,0.088c-0.443,0.077-0.762,0.172-0.955,0.284
			c-0.327,0.189-0.491,0.483-0.491,0.882c0,0.354,0.1,0.611,0.301,0.77c0.199,0.158,0.442,0.236,0.729,0.236
			c0.454,0,0.873-0.131,1.255-0.394s0.581-0.741,0.596-1.437V455.757z"/>
		<path style="fill:#FFFFFF;" d="M361.932,453.227v-1.479h1.108v-2.217h2.056v2.217h1.291v1.479h-1.291v4.2
			c0,0.325,0.041,0.528,0.125,0.608c0.082,0.08,0.335,0.12,0.758,0.12c0.062,0,0.13-0.001,0.2-0.003
			c0.071-0.003,0.14-0.007,0.208-0.012v1.554l-0.984,0.036c-0.982,0.034-1.652-0.136-2.012-0.511
			c-0.234-0.237-0.351-0.604-0.351-1.101v-4.893H361.932z"/>
		<path style="fill:#FFFFFF;" d="M369.857,450.727h-2.107v-1.918h2.107V450.727z M367.75,451.674h2.107v7.947h-2.107V451.674z"/>
		<path style="fill:#FFFFFF;" d="M378.497,458.648c-0.671,0.828-1.688,1.242-3.055,1.242s-2.384-0.414-3.056-1.242
			c-0.67-0.827-1.006-1.824-1.006-2.99c0-1.146,0.336-2.139,1.006-2.979c0.672-0.84,1.689-1.26,3.056-1.26s2.384,0.42,3.055,1.26
			c0.671,0.841,1.007,1.834,1.007,2.979C379.504,456.824,379.168,457.821,378.497,458.648z M376.835,457.5
			c0.325-0.432,0.488-1.046,0.488-1.842s-0.163-1.408-0.488-1.838s-0.792-0.645-1.399-0.645c-0.608,0-1.076,0.215-1.404,0.645
			s-0.492,1.042-0.492,1.838s0.164,1.41,0.492,1.842c0.328,0.433,0.796,0.648,1.404,0.648
			C376.043,458.148,376.51,457.933,376.835,457.5z"/>
		<path style="fill:#FFFFFF;" d="M387.398,452.13c0.521,0.43,0.781,1.144,0.781,2.14v5.352h-2.129v-4.834
			c0-0.418-0.056-0.738-0.166-0.962c-0.203-0.409-0.59-0.613-1.158-0.613c-0.7,0-1.18,0.3-1.441,0.897
			c-0.135,0.315-0.202,0.719-0.202,1.21v4.302h-2.077v-7.933h2.012v1.159c0.266-0.408,0.518-0.702,0.755-0.882
			c0.427-0.321,0.966-0.481,1.619-0.481C386.209,451.484,386.879,451.699,387.398,452.13z"/>
	</g>
	<g style="enable-background:new    ;">
		<path d="M325.32,475.682c-0.629,0.524-1.527,0.787-2.694,0.787h-2.237v3.864h-2.231v-10.747h4.614
			c1.064,0,1.912,0.277,2.545,0.831c0.633,0.555,0.948,1.412,0.948,2.574C326.265,474.26,325.95,475.156,325.32,475.682z
			 M323.607,471.81c-0.285-0.238-0.684-0.357-1.195-0.357h-2.023v3.165h2.023c0.512,0,0.91-0.129,1.195-0.387
			c0.284-0.258,0.426-0.666,0.426-1.225C324.033,472.446,323.892,472.048,323.607,471.81z"/>
		<path d="M332.312,472.2c0.027,0.002,0.086,0.006,0.179,0.011v2.129c-0.132-0.015-0.248-0.024-0.351-0.029
			c-0.102-0.005-0.184-0.007-0.247-0.007c-0.837,0-1.397,0.271-1.685,0.816c-0.16,0.306-0.24,0.777-0.24,1.414v3.799h-2.093v-7.947
			h1.983v1.386c0.32-0.53,0.6-0.893,0.838-1.087c0.389-0.325,0.895-0.488,1.518-0.488
			C332.253,472.196,332.285,472.197,332.312,472.2z"/>
		<path d="M340.336,479.36c-0.67,0.828-1.688,1.242-3.055,1.242c-1.365,0-2.384-0.414-3.055-1.242
			c-0.671-0.827-1.006-1.824-1.006-2.99c0-1.146,0.335-2.139,1.006-2.979c0.671-0.84,1.689-1.26,3.055-1.26
			c1.366,0,2.385,0.42,3.055,1.26c0.672,0.841,1.007,1.834,1.007,2.979C341.343,477.536,341.008,478.533,340.336,479.36z
			 M338.674,478.212c0.326-0.432,0.488-1.046,0.488-1.842s-0.162-1.408-0.488-1.838c-0.325-0.43-0.792-0.645-1.399-0.645
			c-0.608,0-1.075,0.215-1.403,0.645s-0.492,1.042-0.492,1.838s0.164,1.41,0.492,1.842c0.328,0.433,0.795,0.648,1.403,0.648
			C337.882,478.86,338.349,478.645,338.674,478.212z"/>
		<path d="M346.762,472.379c0.504,0.209,0.912,0.593,1.223,1.151v-1.145h2.027v7.539c0,1.025-0.174,1.798-0.518,2.318
			c-0.594,0.895-1.73,1.342-3.412,1.342c-1.017,0-1.846-0.199-2.486-0.598c-0.643-0.399-0.997-0.994-1.064-1.787h2.26
			c0.059,0.243,0.152,0.418,0.284,0.525c0.224,0.189,0.601,0.284,1.13,0.284c0.748,0,1.25-0.25,1.502-0.751
			c0.166-0.32,0.248-0.86,0.248-1.618v-0.511c-0.199,0.341-0.413,0.596-0.642,0.766c-0.413,0.316-0.95,0.474-1.611,0.474
			c-1.021,0-1.836-0.358-2.446-1.075c-0.609-0.717-0.914-1.688-0.914-2.913c0-1.181,0.293-2.174,0.881-2.978
			c0.587-0.805,1.42-1.207,2.497-1.207C346.117,472.196,346.465,472.257,346.762,472.379z M347.469,478.076
			c0.334-0.366,0.501-0.951,0.501-1.753c0-0.754-0.159-1.327-0.476-1.721s-0.742-0.591-1.273-0.591
			c-0.727,0-1.228,0.343-1.504,1.028c-0.145,0.364-0.218,0.813-0.218,1.349c0,0.462,0.077,0.872,0.232,1.232
			c0.28,0.671,0.784,1.006,1.511,1.006C346.726,478.627,347.135,478.443,347.469,478.076z"/>
		<path d="M356.365,472.2c0.027,0.002,0.086,0.006,0.179,0.011v2.129c-0.132-0.015-0.248-0.024-0.351-0.029
			c-0.102-0.005-0.184-0.007-0.247-0.007c-0.837,0-1.397,0.271-1.685,0.816c-0.16,0.306-0.24,0.777-0.24,1.414v3.799h-2.093v-7.947
			h1.983v1.386c0.32-0.53,0.6-0.893,0.838-1.087c0.389-0.325,0.895-0.488,1.518-0.488
			C356.306,472.196,356.338,472.197,356.365,472.2z"/>
		<path d="M360.909,475.499c0.387-0.049,0.663-0.109,0.83-0.183c0.299-0.126,0.448-0.323,0.448-0.59
			c0-0.326-0.115-0.551-0.344-0.675s-0.565-0.186-1.009-0.186c-0.497,0-0.851,0.121-1.058,0.364
			c-0.147,0.18-0.246,0.423-0.295,0.729h-2.005c0.044-0.695,0.239-1.267,0.585-1.714c0.553-0.7,1.499-1.05,2.842-1.05
			c0.874,0,1.65,0.173,2.328,0.518c0.68,0.346,1.018,0.996,1.018,1.954v3.646c0,0.253,0.006,0.559,0.016,0.919
			c0.014,0.271,0.056,0.457,0.123,0.554c0.068,0.098,0.17,0.178,0.307,0.24v0.307h-2.26c-0.063-0.16-0.107-0.311-0.131-0.452
			c-0.025-0.141-0.045-0.301-0.059-0.481c-0.289,0.312-0.621,0.576-0.998,0.795c-0.449,0.258-0.958,0.387-1.525,0.387
			c-0.724,0-1.321-0.205-1.793-0.616s-0.707-0.993-0.707-1.746c0-0.978,0.379-1.685,1.138-2.122c0.417-0.238,1.028-0.408,1.837-0.51
			L360.909,475.499z M362.18,476.469c-0.133,0.083-0.268,0.149-0.402,0.2c-0.136,0.052-0.322,0.099-0.559,0.143l-0.473,0.088
			c-0.443,0.077-0.762,0.172-0.955,0.284c-0.327,0.189-0.49,0.483-0.49,0.882c0,0.354,0.1,0.611,0.299,0.77
			c0.2,0.158,0.443,0.236,0.729,0.236c0.454,0,0.872-0.131,1.255-0.394s0.581-0.741,0.596-1.437V476.469z"/>
		<path d="M375.981,472.415c0.341,0.136,0.649,0.374,0.927,0.715c0.223,0.276,0.373,0.617,0.451,1.021
			c0.049,0.268,0.073,0.658,0.073,1.174l-0.015,5.009h-2.129v-5.06c0-0.302-0.049-0.55-0.146-0.744
			c-0.184-0.369-0.524-0.554-1.02-0.554c-0.574,0-0.971,0.238-1.189,0.714c-0.111,0.253-0.168,0.557-0.168,0.912v4.731h-2.092
			v-4.731c0-0.472-0.049-0.814-0.146-1.028c-0.174-0.384-0.518-0.576-1.027-0.576c-0.594,0-0.992,0.192-1.195,0.576
			c-0.112,0.219-0.168,0.544-0.168,0.977v4.783h-2.107V472.4h2.02v1.159c0.258-0.413,0.501-0.707,0.729-0.882
			c0.403-0.312,0.926-0.467,1.567-0.467c0.607,0,1.099,0.134,1.473,0.401c0.301,0.247,0.529,0.565,0.686,0.955
			c0.271-0.467,0.609-0.81,1.014-1.028c0.428-0.219,0.904-0.328,1.429-0.328C375.297,472.211,375.641,472.279,375.981,472.415z"/>
	</g>
</g>
<rect x="132.459" y="405.508" style="fill:none;stroke:#001689;stroke-width:3;stroke-miterlimit:10;" width="336.885" height="151.59"/>
<rect x="86.109" y="506.426" style="fill:none;" width="434.428" height="52.459"/>
<g style="enable-background:new    ;">
	<path style="fill:#001689;" d="M178.217,506.622h2.956l2.162,6.917l2.163-6.917h2.851l1.486,11.54h-2.369l-1.019-8.121l-2.54,8.121
		h-1.129l-2.606-8.191l-0.962,8.191H176.8L178.217,506.622z"/>
	<path style="fill:#001689;" d="M196.558,518.162v-1.292h-0.035c-0.352,0.504-0.706,0.869-1.063,1.095
		c-0.357,0.225-0.8,0.338-1.327,0.338c-0.885,0-1.638-0.381-2.259-1.143s-0.932-1.688-0.932-2.777c0-1.078,0.331-2.002,0.993-2.773
		c0.662-0.77,1.447-1.155,2.355-1.155c0.434,0,0.823,0.097,1.169,0.29s0.712,0.501,1.099,0.923v-1.046h2.25v7.541H196.558z
		 M194.905,512.704c-0.445,0-0.817,0.178-1.116,0.532s-0.448,0.801-0.448,1.34c0,0.504,0.142,0.91,0.426,1.217
		c0.284,0.309,0.658,0.462,1.121,0.462c0.445,0,0.826-0.177,1.143-0.532c0.316-0.354,0.475-0.783,0.475-1.287
		c0-0.469-0.158-0.875-0.475-1.217C195.714,512.875,195.339,512.704,194.905,512.704z"/>
	<path style="fill:#001689;" d="M200.987,506.429h2.232v7.124l2.231-2.949h2.699l-2.507,3.329l2.718,4.229h-2.527l-2.615-4.004
		v4.004h-2.232V506.429z"/>
	<path style="fill:#001689;" d="M216.702,514.919h-5.388c0.029,0.486,0.189,0.882,0.479,1.187s0.628,0.457,1.015,0.457
		c0.691,0,1.233-0.313,1.626-0.94l2.065,0.686c-0.768,1.342-1.96,2.013-3.577,2.013c-1.189,0-2.136-0.36-2.839-1.081
		s-1.055-1.69-1.055-2.909c0-1.096,0.371-2.016,1.112-2.76s1.654-1.116,2.738-1.116c1.09,0,2,0.392,2.729,1.173
		c0.729,0.783,1.094,1.76,1.094,2.932V514.919z M211.332,513.407h3.041c-0.211-0.943-0.694-1.415-1.45-1.415
		c-0.434,0-0.792,0.123-1.077,0.369S211.391,512.956,211.332,513.407z"/>
	<path style="fill:#001689;" d="M223.074,508.011h2.25v2.593h1.081v2.065h-1.081v5.493h-2.25v-5.493h-0.861v-2.065h0.861V508.011z"
		/>
	<path style="fill:#001689;" d="M227.926,506.429h2.285v5.054c0.41-0.352,0.791-0.606,1.143-0.765s0.759-0.237,1.222-0.237
		c0.791,0,1.411,0.285,1.859,0.857c0.448,0.57,0.672,1.363,0.672,2.377v4.447h-2.268v-4.052c0-0.486-0.125-0.895-0.374-1.226
		s-0.555-0.497-0.918-0.497c-0.463,0-0.801,0.19-1.015,0.571s-0.321,0.976-0.321,1.784v3.419h-2.285V506.429z"/>
	<path style="fill:#001689;" d="M244.344,514.919h-5.388c0.029,0.486,0.189,0.882,0.479,1.187s0.628,0.457,1.015,0.457
		c0.691,0,1.233-0.313,1.626-0.94l2.065,0.686c-0.768,1.342-1.96,2.013-3.577,2.013c-1.189,0-2.136-0.36-2.839-1.081
		s-1.055-1.69-1.055-2.909c0-1.096,0.371-2.016,1.112-2.76s1.654-1.116,2.738-1.116c1.09,0,2,0.392,2.729,1.173
		c0.729,0.783,1.094,1.76,1.094,2.932V514.919z M238.974,513.407h3.041c-0.211-0.943-0.694-1.415-1.45-1.415
		c-0.434,0-0.792,0.123-1.077,0.369S239.032,512.956,238.974,513.407z"/>
	<path style="fill:#001689;" d="M259.443,507.237v2.812c-1.248-0.75-2.341-1.125-3.278-1.125s-1.688,0.322-2.25,0.967
		s-0.844,1.512-0.844,2.602c0,1.031,0.296,1.856,0.888,2.474c0.592,0.619,1.383,0.928,2.373,0.928c0.867,0,1.904-0.349,3.111-1.046
		v2.795c-1.354,0.451-2.481,0.677-3.384,0.677c-1.553,0-2.871-0.569-3.955-1.709s-1.626-2.53-1.626-4.171
		c0-1.67,0.552-3.083,1.657-4.241c1.104-1.156,2.448-1.735,4.03-1.735C257.185,506.464,258.277,506.722,259.443,507.237z"/>
	<path style="fill:#001689;" d="M261.333,506.622h6.495v2.285h-4.008v2.329h4.008v2.25h-4.008v2.391h4.008v2.285h-6.495V506.622z"/>
	<path style="fill:#001689;" d="M274.78,506.622h3.946c1.061,0,1.916,0.31,2.566,0.927c0.65,0.619,0.976,1.432,0.976,2.439
		c0,0.662-0.16,1.291-0.479,1.885c-0.319,0.596-0.801,1.039-1.446,1.332s-1.195,0.445-1.652,0.457l-1.441,0.035v4.465h-2.47V506.622
		z M277.215,508.696v2.953h0.967c0.416,0,0.772-0.149,1.068-0.448s0.444-0.653,0.444-1.063c0-0.469-0.167-0.832-0.501-1.09
		s-0.809-0.387-1.424-0.387L277.215,508.696z"/>
	<path style="fill:#001689;" d="M286.32,510.604v1.116h0.035c0.223-0.375,0.482-0.673,0.778-0.892c0.296-0.221,0.57-0.33,0.822-0.33
		c0.152,0,0.29,0.012,0.413,0.035v2.461c-0.188-0.035-0.372-0.053-0.554-0.053c-0.463,0-0.822,0.162-1.077,0.488
		c-0.255,0.324-0.382,0.78-0.382,1.366v3.366h-2.285v-7.559H286.32z"/>
	<path style="fill:#001689;" d="M289.607,514.4c0-1.166,0.372-2.118,1.116-2.856s1.699-1.107,2.865-1.107
		c1.084,0,1.994,0.377,2.729,1.13s1.103,1.686,1.103,2.799c0,1.137-0.368,2.08-1.103,2.83s-1.657,1.125-2.764,1.125
		c-1.248,0-2.218-0.396-2.909-1.191C289.953,516.336,289.607,515.426,289.607,514.4z M295.206,514.4c0-0.51-0.167-0.955-0.501-1.336
		s-0.724-0.571-1.169-0.571c-0.463,0-0.861,0.179-1.195,0.536s-0.501,0.785-0.501,1.283c0,0.545,0.166,1.008,0.497,1.389
		s0.731,0.571,1.2,0.571c0.445,0,0.835-0.186,1.169-0.558S295.206,514.904,295.206,514.4z"/>
	<path style="fill:#001689;" d="M304.399,517.731v-0.888c-0.674,0.855-1.453,1.283-2.338,1.283c-0.949,0-1.742-0.366-2.377-1.099
		s-0.954-1.649-0.954-2.751c0-1.066,0.33-1.973,0.989-2.721c0.659-0.746,1.452-1.12,2.377-1.12c0.785,0,1.553,0.41,2.303,1.23
		v-1.046h2.232v7.646c0,0.422-0.133,0.906-0.4,1.455c-0.267,0.547-0.721,0.951-1.362,1.213c-0.642,0.26-1.384,0.391-2.228,0.391
		c-1.049,0-1.888-0.196-2.518-0.589s-1.083-1.066-1.358-2.021h2.522c0.492,0.686,1.025,1.028,1.6,1.028
		c0.445,0,0.809-0.187,1.09-0.559S304.399,518.329,304.399,517.731z M301.13,514.339c0,0.387,0.168,0.764,0.505,1.13
		s0.731,0.549,1.182,0.549c0.439,0,0.816-0.174,1.129-0.523c0.313-0.348,0.47-0.774,0.47-1.278c0-0.516-0.149-0.94-0.448-1.274
		s-0.683-0.501-1.151-0.501c-0.475,0-0.875,0.175-1.2,0.522C301.292,513.312,301.13,513.771,301.13,514.339z"/>
	<path style="fill:#001689;" d="M311.026,510.604v1.116h0.035c0.223-0.375,0.481-0.673,0.778-0.892
		c0.295-0.221,0.569-0.33,0.821-0.33c0.152,0,0.29,0.012,0.413,0.035v2.461c-0.188-0.035-0.372-0.053-0.554-0.053
		c-0.463,0-0.821,0.162-1.077,0.488c-0.254,0.324-0.382,0.78-0.382,1.366v3.366h-2.285v-7.559H311.026z"/>
	<path style="fill:#001689;" d="M319.71,518.162v-1.292h-0.035c-0.352,0.504-0.706,0.869-1.063,1.095
		c-0.357,0.225-0.8,0.338-1.327,0.338c-0.885,0-1.638-0.381-2.259-1.143s-0.932-1.688-0.932-2.777c0-1.078,0.331-2.002,0.993-2.773
		c0.662-0.77,1.447-1.155,2.355-1.155c0.434,0,0.823,0.097,1.169,0.29s0.712,0.501,1.099,0.923v-1.046h2.25v7.541H319.71z
		 M318.058,512.704c-0.445,0-0.817,0.178-1.116,0.532s-0.448,0.801-0.448,1.34c0,0.504,0.142,0.91,0.427,1.217
		c0.283,0.309,0.657,0.462,1.12,0.462c0.445,0,0.826-0.177,1.143-0.532c0.316-0.354,0.475-0.783,0.475-1.287
		c0-0.469-0.158-0.875-0.475-1.217C318.866,512.875,318.491,512.704,318.058,512.704z"/>
	<path style="fill:#001689;" d="M326.565,510.604v1.204c0.105-0.07,0.261-0.205,0.466-0.404s0.402-0.367,0.594-0.505
		c0.189-0.138,0.418-0.249,0.686-0.334c0.266-0.085,0.508-0.128,0.725-0.128c0.346,0,0.721,0.122,1.125,0.364
		c0.404,0.244,0.741,0.676,1.011,1.297c0.469-0.598,0.927-1.023,1.376-1.279c0.447-0.254,0.865-0.382,1.252-0.382
		c0.686,0,1.266,0.283,1.74,0.849s0.712,1.261,0.712,2.087v4.79h-2.25v-4.192c0-0.416-0.114-0.766-0.343-1.05
		s-0.504-0.427-0.826-0.427c-0.387,0-0.721,0.161-1.002,0.483s-0.422,0.706-0.422,1.151v4.034h-2.232v-4.087
		c0-0.439-0.115-0.81-0.348-1.112c-0.23-0.301-0.511-0.452-0.839-0.452c-0.387,0-0.721,0.166-1.002,0.497s-0.422,0.728-0.422,1.19
		v3.964h-2.268v-7.559H326.565z"/>
	<path style="fill:#001689;" d="M345.541,510.621v1.099h0.035c0.328-0.439,0.67-0.761,1.023-0.962
		c0.355-0.203,0.781-0.304,1.279-0.304c0.902,0,1.672,0.396,2.307,1.187c0.637,0.791,0.954,1.752,0.954,2.883
		c0,1.037-0.31,1.927-0.927,2.668c-0.619,0.741-1.353,1.111-2.202,1.111c-0.521,0-0.958-0.108-1.31-0.325s-0.715-0.562-1.09-1.037
		h-0.035v4.553h-2.285v-10.872H345.541z M348.784,514.506c0-0.492-0.158-0.915-0.475-1.27s-0.694-0.532-1.134-0.532
		c-0.434,0-0.803,0.175-1.107,0.522c-0.305,0.35-0.457,0.775-0.457,1.279c0,0.486,0.16,0.902,0.479,1.248
		c0.32,0.346,0.708,0.519,1.165,0.519c0.445,0,0.812-0.164,1.099-0.492S348.784,515.027,348.784,514.506z"/>
	<path style="fill:#001689;" d="M357.811,518.162v-1.292h-0.035c-0.352,0.504-0.706,0.869-1.063,1.095
		c-0.357,0.225-0.8,0.338-1.327,0.338c-0.885,0-1.638-0.381-2.259-1.143s-0.932-1.688-0.932-2.777c0-1.078,0.331-2.002,0.993-2.773
		c0.662-0.77,1.447-1.155,2.355-1.155c0.434,0,0.823,0.097,1.169,0.29s0.712,0.501,1.099,0.923v-1.046h2.25v7.541H357.811z
		 M356.158,512.704c-0.445,0-0.817,0.178-1.116,0.532s-0.448,0.801-0.448,1.34c0,0.504,0.143,0.91,0.426,1.217
		c0.285,0.309,0.658,0.462,1.121,0.462c0.445,0,0.826-0.177,1.143-0.532c0.316-0.354,0.475-0.783,0.475-1.287
		c0-0.469-0.158-0.875-0.475-1.217C356.967,512.875,356.592,512.704,356.158,512.704z"/>
	<path style="fill:#001689;" d="M364.438,510.604v1.116h0.035c0.223-0.375,0.482-0.673,0.777-0.892
		c0.297-0.221,0.57-0.33,0.822-0.33c0.152,0,0.29,0.012,0.413,0.035v2.461c-0.188-0.035-0.372-0.053-0.554-0.053
		c-0.463,0-0.822,0.162-1.076,0.488c-0.256,0.324-0.383,0.78-0.383,1.366v3.366h-2.285v-7.559H364.438z"/>
	<path style="fill:#001689;" d="M368.823,508.011h2.25v2.593h1.081v2.065h-1.081v5.493h-2.25v-5.493h-0.861v-2.065h0.861V508.011z"
		/>
	<path style="fill:#001689;" d="M378.087,514.4c0-1.166,0.372-2.118,1.116-2.856s1.699-1.107,2.865-1.107
		c1.084,0,1.993,0.377,2.729,1.13c0.734,0.753,1.103,1.686,1.103,2.799c0,1.137-0.368,2.08-1.103,2.83
		c-0.736,0.75-1.657,1.125-2.765,1.125c-1.248,0-2.218-0.396-2.909-1.191C378.433,516.336,378.087,515.426,378.087,514.4z
		 M383.686,514.4c0-0.51-0.167-0.955-0.501-1.336s-0.724-0.571-1.169-0.571c-0.463,0-0.861,0.179-1.195,0.536
		s-0.501,0.785-0.501,1.283c0,0.545,0.165,1.008,0.496,1.389s0.731,0.571,1.2,0.571c0.445,0,0.835-0.186,1.169-0.558
		S383.686,514.904,383.686,514.4z"/>
	<path style="fill:#001689;" d="M392.035,506.71v2.162c-0.34-0.229-0.633-0.343-0.879-0.343c-0.316,0-0.573,0.114-0.77,0.343
		s-0.294,0.524-0.294,0.888v0.844h1.925v2.048h-1.942v5.511h-2.25v-5.511h-0.668v-2.048h0.668v-0.923
		c0-1.283,0.272-2.151,0.817-2.606c0.545-0.453,1.184-0.681,1.916-0.681C391.139,506.394,391.631,506.499,392.035,506.71z"/>
	<path style="fill:#001689;" d="M398.908,510.621h2.401l2.171,4.391l1.934-4.391h2.301l-4.701,10.872h-2.339l1.687-3.87
		L398.908,510.621z"/>
	<path style="fill:#001689;" d="M408.699,514.4c0-1.166,0.372-2.118,1.116-2.856s1.699-1.107,2.865-1.107
		c1.084,0,1.993,0.377,2.729,1.13c0.734,0.753,1.103,1.686,1.103,2.799c0,1.137-0.368,2.08-1.103,2.83
		c-0.736,0.75-1.657,1.125-2.765,1.125c-1.248,0-2.218-0.396-2.909-1.191C409.045,516.336,408.699,515.426,408.699,514.4z
		 M414.298,514.4c0-0.51-0.167-0.955-0.501-1.336s-0.724-0.571-1.169-0.571c-0.463,0-0.861,0.179-1.195,0.536
		s-0.501,0.785-0.501,1.283c0,0.545,0.165,1.008,0.496,1.389s0.731,0.571,1.2,0.571c0.445,0,0.835-0.186,1.169-0.558
		S414.298,514.904,414.298,514.4z"/>
	<path style="fill:#001689;" d="M418.446,510.621h2.285v3.621c0,0.521,0.133,0.957,0.398,1.305c0.266,0.35,0.595,0.523,0.986,0.523
		c0.414,0,0.764-0.168,1.047-0.506c0.283-0.336,0.425-0.76,0.425-1.27v-3.674h2.285v4.395c0,0.932-0.355,1.713-1.066,2.342
		c-0.711,0.631-1.597,0.945-2.655,0.945c-1.124,0-2.022-0.316-2.695-0.949s-1.01-1.474-1.01-2.522V510.621z"/>
	<path style="fill:#001689;" d="M430.153,510.604v1.116h0.035c0.223-0.375,0.481-0.673,0.778-0.892
		c0.295-0.221,0.569-0.33,0.821-0.33c0.152,0,0.29,0.012,0.413,0.035v2.461c-0.188-0.035-0.372-0.053-0.554-0.053
		c-0.463,0-0.821,0.162-1.077,0.488c-0.254,0.324-0.382,0.78-0.382,1.366v3.366h-2.285v-7.559H430.153z"/>
</g>
<g style="enable-background:new    ;">
	<path style="fill:#001689;" d="M195.608,526.429h2.25v11.733h-2.25V526.429z"/>
	<path style="fill:#001689;" d="M207.219,534.919h-5.388c0.029,0.486,0.189,0.882,0.479,1.187s0.628,0.457,1.015,0.457
		c0.691,0,1.233-0.313,1.626-0.94l2.065,0.686c-0.768,1.342-1.96,2.013-3.577,2.013c-1.189,0-2.136-0.36-2.839-1.081
		s-1.055-1.69-1.055-2.909c0-1.096,0.371-2.016,1.112-2.76s1.654-1.116,2.738-1.116c1.09,0,2,0.392,2.729,1.173
		c0.729,0.783,1.094,1.76,1.094,2.932V534.919z M201.849,533.407h3.041c-0.211-0.943-0.694-1.415-1.45-1.415
		c-0.434,0-0.792,0.123-1.077,0.369S201.907,532.956,201.849,533.407z"/>
	<path style="fill:#001689;" d="M213.819,538.162v-1.292h-0.035c-0.352,0.504-0.706,0.869-1.063,1.095
		c-0.357,0.225-0.8,0.338-1.327,0.338c-0.885,0-1.638-0.381-2.259-1.143s-0.932-1.688-0.932-2.777c0-1.078,0.331-2.002,0.993-2.773
		c0.662-0.77,1.447-1.155,2.355-1.155c0.434,0,0.823,0.097,1.169,0.29s0.712,0.501,1.099,0.923v-1.046h2.25v7.541H213.819z
		 M212.167,532.704c-0.445,0-0.817,0.178-1.116,0.532s-0.448,0.801-0.448,1.34c0,0.504,0.142,0.91,0.426,1.217
		c0.284,0.309,0.658,0.462,1.121,0.462c0.445,0,0.826-0.177,1.143-0.532c0.316-0.354,0.475-0.783,0.475-1.287
		c0-0.469-0.158-0.875-0.475-1.217C212.976,532.875,212.601,532.704,212.167,532.704z"/>
	<path style="fill:#001689;" d="M220.446,530.604v1.116h0.035c0.223-0.375,0.482-0.673,0.778-0.892
		c0.296-0.221,0.57-0.33,0.822-0.33c0.152,0,0.29,0.012,0.413,0.035v2.461c-0.188-0.035-0.372-0.053-0.554-0.053
		c-0.463,0-0.822,0.162-1.077,0.488c-0.255,0.324-0.382,0.78-0.382,1.366v3.366h-2.285v-7.559H220.446z"/>
	<path style="fill:#001689;" d="M226.537,530.604v0.896c0.768-0.721,1.573-1.081,2.417-1.081c0.721,0,1.317,0.296,1.789,0.888
		s0.708,1.348,0.708,2.268v4.588h-2.285v-4.228c0-0.434-0.119-0.8-0.356-1.099s-0.526-0.448-0.866-0.448
		c-0.41,0-0.747,0.188-1.011,0.567c-0.264,0.377-0.396,0.865-0.396,1.463v3.744h-2.25v-7.559H226.537z"/>
	<path style="fill:#001689;" d="M233.48,527.805c0-0.383,0.138-0.712,0.413-0.988s0.606-0.414,0.993-0.414s0.718,0.138,0.993,0.414
		s0.413,0.605,0.413,0.988c0,0.388-0.138,0.72-0.413,0.996s-0.606,0.414-0.993,0.414s-0.718-0.138-0.993-0.414
		S233.48,528.192,233.48,527.805z M233.771,530.604h2.25v7.559h-2.25V530.604z"/>
	<path style="fill:#001689;" d="M240.767,530.604v0.896c0.768-0.721,1.573-1.081,2.417-1.081c0.721,0,1.317,0.296,1.789,0.888
		s0.708,1.348,0.708,2.268v4.588h-2.285v-4.228c0-0.434-0.119-0.8-0.356-1.099s-0.526-0.448-0.866-0.448
		c-0.41,0-0.747,0.188-1.011,0.567c-0.264,0.377-0.396,0.865-0.396,1.463v3.744h-2.25v-7.559H240.767z"/>
	<path style="fill:#001689;" d="M252.931,537.731v-0.888c-0.674,0.855-1.453,1.283-2.338,1.283c-0.949,0-1.742-0.366-2.377-1.099
		s-0.954-1.649-0.954-2.751c0-1.066,0.33-1.973,0.989-2.721c0.659-0.746,1.452-1.12,2.377-1.12c0.785,0,1.553,0.41,2.303,1.23
		v-1.046h2.232v7.646c0,0.422-0.133,0.906-0.4,1.455c-0.267,0.547-0.721,0.951-1.362,1.213c-0.642,0.26-1.384,0.391-2.228,0.391
		c-1.049,0-1.888-0.196-2.518-0.589s-1.083-1.066-1.358-2.021h2.522c0.492,0.686,1.025,1.028,1.6,1.028
		c0.445,0,0.809-0.187,1.09-0.559S252.931,538.329,252.931,537.731z M249.661,534.339c0,0.387,0.168,0.764,0.505,1.13
		s0.731,0.549,1.182,0.549c0.439,0,0.816-0.174,1.129-0.523c0.313-0.348,0.47-0.774,0.47-1.278c0-0.516-0.149-0.94-0.448-1.274
		s-0.683-0.501-1.151-0.501c-0.475,0-0.875,0.175-1.2,0.522C249.824,533.312,249.661,533.771,249.661,534.339z"/>
	<path style="fill:#001689;" d="M267.222,538.162v-1.292h-0.035c-0.352,0.504-0.706,0.869-1.063,1.095
		c-0.357,0.225-0.8,0.338-1.327,0.338c-0.885,0-1.638-0.381-2.259-1.143s-0.932-1.688-0.932-2.777c0-1.078,0.331-2.002,0.993-2.773
		c0.662-0.77,1.447-1.155,2.355-1.155c0.434,0,0.823,0.097,1.169,0.29s0.712,0.501,1.099,0.923v-1.046h2.25v7.541H267.222z
		 M265.569,532.704c-0.445,0-0.817,0.178-1.116,0.532s-0.448,0.801-0.448,1.34c0,0.504,0.142,0.91,0.426,1.217
		c0.284,0.309,0.658,0.462,1.121,0.462c0.445,0,0.826-0.177,1.143-0.532c0.316-0.354,0.475-0.783,0.475-1.287
		c0-0.469-0.158-0.875-0.475-1.217C266.378,532.875,266.003,532.704,265.569,532.704z"/>
	<path style="fill:#001689;" d="M274.13,530.604v0.896c0.768-0.721,1.573-1.081,2.417-1.081c0.721,0,1.317,0.296,1.789,0.888
		s0.708,1.348,0.708,2.268v4.588h-2.285v-4.228c0-0.434-0.119-0.8-0.356-1.099s-0.526-0.448-0.866-0.448
		c-0.41,0-0.747,0.188-1.011,0.567c-0.264,0.377-0.396,0.865-0.396,1.463v3.744h-2.25v-7.559H274.13z"/>
	<path style="fill:#001689;" d="M286.276,526.429h2.268v11.733h-2.215v-1.292h-0.035c-0.655,0.943-1.468,1.415-2.439,1.415
		c-0.866,0-1.604-0.378-2.216-1.134s-0.917-1.679-0.917-2.769s0.316-2.02,0.948-2.791c0.632-0.77,1.389-1.155,2.273-1.155
		c0.503,0,0.927,0.093,1.272,0.276c0.345,0.186,0.699,0.485,1.062,0.901V526.429z M284.62,532.669c-0.368,0-0.713,0.17-1.034,0.51
		s-0.482,0.8-0.482,1.38c0,0.463,0.142,0.858,0.425,1.187c0.284,0.328,0.627,0.492,1.03,0.492c0.479,0,0.879-0.177,1.201-0.532
		c0.321-0.354,0.482-0.795,0.482-1.322c0-0.457-0.156-0.857-0.469-1.199C285.459,532.84,285.075,532.669,284.62,532.669z"/>
	<path style="fill:#001689;" d="M300.638,537.731v-0.888c-0.674,0.855-1.453,1.283-2.338,1.283c-0.949,0-1.742-0.366-2.377-1.099
		s-0.954-1.649-0.954-2.751c0-1.066,0.33-1.973,0.989-2.721c0.659-0.746,1.452-1.12,2.377-1.12c0.785,0,1.553,0.41,2.303,1.23
		v-1.046h2.232v7.646c0,0.422-0.133,0.906-0.4,1.455c-0.267,0.547-0.721,0.951-1.362,1.213c-0.642,0.26-1.384,0.391-2.228,0.391
		c-1.049,0-1.888-0.196-2.518-0.589s-1.083-1.066-1.358-2.021h2.522c0.492,0.686,1.025,1.028,1.6,1.028
		c0.445,0,0.809-0.187,1.09-0.559S300.638,538.329,300.638,537.731z M297.368,534.339c0,0.387,0.168,0.764,0.505,1.13
		s0.731,0.549,1.182,0.549c0.439,0,0.816-0.174,1.129-0.523c0.313-0.348,0.47-0.774,0.47-1.278c0-0.516-0.149-0.94-0.448-1.274
		s-0.683-0.501-1.151-0.501c-0.475,0-0.875,0.175-1.2,0.522C297.531,533.312,297.368,533.771,297.368,534.339z"/>
	<path style="fill:#001689;" d="M307.265,530.604v1.116h0.035c0.223-0.375,0.481-0.673,0.778-0.892
		c0.295-0.221,0.569-0.33,0.821-0.33c0.152,0,0.29,0.012,0.413,0.035v2.461c-0.188-0.035-0.372-0.053-0.554-0.053
		c-0.463,0-0.821,0.162-1.077,0.488c-0.254,0.324-0.382,0.78-0.382,1.366v3.366h-2.285v-7.559H307.265z"/>
	<path style="fill:#001689;" d="M310.552,534.4c0-1.166,0.372-2.118,1.116-2.856s1.699-1.107,2.865-1.107
		c1.084,0,1.994,0.377,2.729,1.13c0.736,0.753,1.104,1.686,1.104,2.799c0,1.137-0.367,2.08-1.104,2.83
		c-0.734,0.75-1.656,1.125-2.764,1.125c-1.248,0-2.218-0.396-2.909-1.191C310.897,536.336,310.552,535.426,310.552,534.4z
		 M316.15,534.4c0-0.51-0.167-0.955-0.501-1.336s-0.724-0.571-1.169-0.571c-0.463,0-0.861,0.179-1.195,0.536
		s-0.501,0.785-0.501,1.283c0,0.545,0.165,1.008,0.497,1.389c0.33,0.381,0.73,0.571,1.199,0.571c0.445,0,0.835-0.186,1.169-0.558
		S316.15,534.904,316.15,534.4z"/>
	<path style="fill:#001689;" d="M319.086,530.604h2.375l2.033,4.482l1.792-4.482h1.467l1.786,4.447l2.018-4.447h2.372l-3.446,7.559
		h-1.806l-1.644-4.14l-1.664,4.14h-1.847L319.086,530.604z"/>
	<path style="fill:#001689;" d="M334.203,528.011h2.25v2.593h1.081v2.065h-1.081v5.493h-2.25v-5.493h-0.861v-2.065h0.861V528.011z"
		/>
	<path style="fill:#001689;" d="M339.055,526.429h2.285v5.054c0.41-0.352,0.791-0.606,1.143-0.765s0.759-0.237,1.222-0.237
		c0.791,0,1.411,0.285,1.858,0.857c0.449,0.57,0.673,1.363,0.673,2.377v4.447h-2.268v-4.052c0-0.486-0.124-0.895-0.374-1.226
		c-0.248-0.331-0.555-0.497-0.918-0.497c-0.463,0-0.801,0.19-1.016,0.571c-0.213,0.381-0.32,0.976-0.32,1.784v3.419h-2.285V526.429z
		"/>
	<path style="fill:#001689;" d="M358.786,531.667l-1.529,0.932c-0.441-0.445-0.854-0.668-1.236-0.668
		c-0.188,0-0.351,0.053-0.485,0.158c-0.135,0.104-0.203,0.233-0.203,0.386c0,0.245,0.078,0.424,0.234,0.535s0.572,0.282,1.248,0.515
		s1.209,0.53,1.598,0.894c0.391,0.363,0.585,0.867,0.585,1.512c0,0.65-0.293,1.209-0.879,1.674
		c-0.586,0.467-1.289,0.699-2.109,0.699c-0.557,0-1.112-0.155-1.665-0.466c-0.555-0.311-1.024-0.785-1.411-1.424l1.819-0.826
		c0.41,0.709,0.835,1.063,1.274,1.063c0.199,0,0.378-0.064,0.536-0.192c0.158-0.129,0.237-0.274,0.237-0.438
		c0-0.21-0.091-0.37-0.272-0.479s-0.316-0.163-0.404-0.163c-0.035-0.041-0.246-0.123-0.633-0.246
		c-1.512-0.493-2.268-1.294-2.268-2.401c0-0.668,0.271-1.214,0.812-1.639c0.543-0.425,1.25-0.638,2.123-0.638
		C357.125,530.454,358.001,530.858,358.786,531.667z"/>
	<path style="fill:#001689;" d="M360.904,528.011h2.25v2.593h1.081v2.065h-1.081v5.493h-2.25v-5.493h-0.861v-2.065h0.861V528.011z"
		/>
	<path style="fill:#001689;" d="M367.725,530.604v1.116h0.035c0.223-0.375,0.482-0.673,0.777-0.892
		c0.297-0.221,0.57-0.33,0.822-0.33c0.152,0,0.29,0.012,0.413,0.035v2.461c-0.188-0.035-0.372-0.053-0.554-0.053
		c-0.463,0-0.822,0.162-1.076,0.488c-0.256,0.324-0.383,0.78-0.383,1.366v3.366h-2.285v-7.559H367.725z"/>
	<path style="fill:#001689;" d="M376.408,538.162v-1.292h-0.035c-0.352,0.504-0.706,0.869-1.063,1.095
		c-0.357,0.225-0.8,0.338-1.327,0.338c-0.885,0-1.638-0.381-2.259-1.143s-0.932-1.688-0.932-2.777c0-1.078,0.331-2.002,0.993-2.773
		c0.662-0.77,1.447-1.155,2.355-1.155c0.434,0,0.823,0.097,1.169,0.29s0.712,0.501,1.099,0.923v-1.046h2.25v7.541H376.408z
		 M374.756,532.704c-0.445,0-0.817,0.178-1.116,0.532s-0.448,0.801-0.448,1.34c0,0.504,0.143,0.91,0.426,1.217
		c0.285,0.309,0.658,0.462,1.121,0.462c0.445,0,0.826-0.177,1.143-0.532c0.316-0.354,0.475-0.783,0.475-1.287
		c0-0.469-0.158-0.875-0.475-1.217C375.564,532.875,375.189,532.704,374.756,532.704z"/>
	<path style="fill:#001689;" d="M381.251,528.011h2.25v2.593h1.081v2.065h-1.081v5.493h-2.25v-5.493h-0.861v-2.065h0.861V528.011z"
		/>
	<path style="fill:#001689;" d="M392.967,534.919h-5.388c0.029,0.486,0.188,0.882,0.479,1.187c0.289,0.305,0.628,0.457,1.015,0.457
		c0.691,0,1.233-0.313,1.626-0.94l2.065,0.686c-0.768,1.342-1.96,2.013-3.577,2.013c-1.189,0-2.136-0.36-2.839-1.081
		s-1.055-1.69-1.055-2.909c0-1.096,0.37-2.016,1.112-2.76c0.74-0.744,1.653-1.116,2.737-1.116c1.09,0,1.999,0.392,2.729,1.173
		c0.729,0.783,1.094,1.76,1.094,2.932V534.919z M387.597,533.407h3.041c-0.211-0.943-0.694-1.415-1.45-1.415
		c-0.434,0-0.793,0.123-1.076,0.369C387.826,532.607,387.655,532.956,387.597,533.407z"/>
	<path style="fill:#001689;" d="M399.945,537.731v-0.888c-0.674,0.855-1.453,1.283-2.338,1.283c-0.949,0-1.742-0.366-2.377-1.099
		c-0.637-0.732-0.954-1.649-0.954-2.751c0-1.066,0.329-1.973,0.989-2.721c0.658-0.746,1.451-1.12,2.377-1.12
		c0.785,0,1.553,0.41,2.303,1.23v-1.046h2.232v7.646c0,0.422-0.134,0.906-0.4,1.455c-0.267,0.547-0.721,0.951-1.361,1.213
		c-0.643,0.26-1.385,0.391-2.229,0.391c-1.049,0-1.889-0.196-2.518-0.589c-0.631-0.393-1.083-1.066-1.358-2.021h2.522
		c0.492,0.686,1.025,1.028,1.6,1.028c0.445,0,0.809-0.187,1.09-0.559S399.945,538.329,399.945,537.731z M396.676,534.339
		c0,0.387,0.168,0.764,0.506,1.13c0.336,0.366,0.73,0.549,1.182,0.549c0.439,0,0.815-0.174,1.129-0.523
		c0.313-0.348,0.471-0.774,0.471-1.278c0-0.516-0.149-0.94-0.448-1.274s-0.683-0.501-1.151-0.501c-0.475,0-0.875,0.175-1.199,0.522
		C396.838,533.312,396.676,533.771,396.676,534.339z"/>
	<path style="fill:#001689;" d="M403.812,530.621h2.401l2.171,4.391l1.934-4.391h2.301l-4.701,10.872h-2.339l1.687-3.87
		L403.812,530.621z"/>
</g>
</svg>
